<svg xmlns="http://www.w3.org/2000/svg" width="29.034" height="30.957" viewBox="0 0 29.034 30.957">
  <g id="Grupo_19391" data-name="Grupo 19391" transform="translate(0 0)">
    <path id="Trazado_21200" data-name="Trazado 21200" d="M581.034,446.444c-.254-.092-.511-.177-.761-.278a1.451,1.451,0,0,1-.932-1.2,1.923,1.923,0,0,0-.233-.675,3.7,3.7,0,0,1-.584-1.6,3.438,3.438,0,0,0-.581-1.506,4.332,4.332,0,0,1-.713-2.426,2.336,2.336,0,0,1,.062-.478.6.6,0,0,1,.657-.456.582.582,0,0,1,.522.635,3.171,3.171,0,0,0,.563,2.2,5.1,5.1,0,0,1,.706,1.91,5.257,5.257,0,0,0,.392,1.061,7.9,7.9,0,0,1,.357.889.867.867,0,0,0,1.1.689,2.208,2.208,0,0,0,.615-.241c.353-.212.7-.445,1.025-.692.622-.463,1.231-.942,1.847-1.413a2.059,2.059,0,0,0,.786-2.091,1.823,1.823,0,0,1,1.1-2.2c.1-.052.2-.1.3-.151.626-.316.745-.529.642-1.229a13.521,13.521,0,0,1,.026-3.943,2.5,2.5,0,0,1,.983-1.676,13.8,13.8,0,0,0,2.539-2.616,3.5,3.5,0,0,0,.713-1.875c-.116.031-.214.063-.314.083a11.768,11.768,0,0,1-1.27.237,1.442,1.442,0,0,1-1.3-.586,3.134,3.134,0,0,0-1.14-.962,2.081,2.081,0,0,1-1.112-1.43c-.1-.367-.155-.752-.285-1.109a3.177,3.177,0,0,0-.421-.7,2.125,2.125,0,0,0-.308-.288,2.738,2.738,0,0,1-.91-2.615,4.268,4.268,0,0,0,.006-.71,6.523,6.523,0,0,1-3.926-.311c-.05.073-.073.091-.07.1.174.9-.818,1.339-1.461,1.1a15.951,15.951,0,0,1-2.011-.946,1.483,1.483,0,0,1-.766-1.075,1.13,1.13,0,0,0-.728-1.017,1.81,1.81,0,0,0-1.573.086c-.052.03-.1.065-.152.1a2.575,2.575,0,0,1-1.9.521,1.828,1.828,0,0,0-1.425.455.817.817,0,0,0-.285.52,1.674,1.674,0,0,1-1.224,1.648,2.992,2.992,0,0,0-1.668,1.5,1.472,1.472,0,0,0-.174.721,7.077,7.077,0,0,1-.379,2.281,2.927,2.927,0,0,0,.89,3.232,16.192,16.192,0,0,0,1.757,1.322.838.838,0,0,0,.5.057,14.008,14.008,0,0,1,1.431-.143,2.272,2.272,0,0,0,1.381-.326,1.815,1.815,0,0,1,1.432-.127c.533.1,1.064.21,1.6.3a1.008,1.008,0,0,1,.931,1.046,5.635,5.635,0,0,1-.271,1.318c-.169.559-.21.408.208.761a5.031,5.031,0,0,1,.583.568.6.6,0,0,1-.053.864.608.608,0,0,1-.863-.084c-.207-.2-.427-.4-.65-.584a1.3,1.3,0,0,1-.465-1.635c.113-.338.228-.676.339-1.005-.6-.135-1.149-.253-1.7-.383a.819.819,0,0,0-.66.1,2.7,2.7,0,0,1-1.737.389,3.342,3.342,0,0,0-1.337.155,1.15,1.15,0,0,1-.756.007c-1.784-.879-3.36-1.97-3.846-4.082a3.335,3.335,0,0,1,.034-1.791,10.224,10.224,0,0,0,.439-2.452,3.708,3.708,0,0,1,2.016-2.872.64.64,0,0,1,.163-.079c.573-.161.942-.445.907-1.133a1.186,1.186,0,0,1,.372-.733,2.926,2.926,0,0,1,2.36-1.018,2.363,2.363,0,0,0,1.554-.425,2.95,2.95,0,0,1,3.481.312,1.887,1.887,0,0,1,.586,1.132.978.978,0,0,0,.633.778c.371.172.756.314,1.15.475,0-.064,0-.131,0-.2a.86.86,0,0,1,.9-.926,4.946,4.946,0,0,1,1.389.231,4.892,4.892,0,0,0,2.118.157c.371-.036.742-.066,1.114-.088a.793.793,0,0,1,.785.459,1.974,1.974,0,0,1,.244,1.4,1.859,1.859,0,0,0,.787,2.029,2.165,2.165,0,0,1,.816,1.336c.028.138.076.273.093.412a1.956,1.956,0,0,0,1.22,1.684,2.566,2.566,0,0,1,.823.776.743.743,0,0,0,.852.275c.417-.112.829-.251,1.25-.344.83-.182,1.3.321,1.245,1.174a6.23,6.23,0,0,1-2,3.89,11.11,11.11,0,0,1-1.453,1.36,2.226,2.226,0,0,0-.936,1.829,16.42,16.42,0,0,0,.071,3.015,2.03,2.03,0,0,1-1.279,2.4c-.834.416-.835.445-.739,1.3A3.207,3.207,0,0,1,585.569,444c-.466.315-.9.683-1.338,1.034a6.63,6.63,0,0,1-2.531,1.415Z" transform="translate(-565.974 -415.488)" fill="#ea685c"/>
    <path id="Trazado_21201" data-name="Trazado 21201" d="M860.9,672.894c.1-.417.206-.834.315-1.25.157-.6.356-1.192.47-1.8a1.451,1.451,0,0,1,1.095-1.353.982.982,0,0,0,.431-.343c.2-.236.35-.52.562-.745a1.205,1.205,0,0,1,2.02.249,2.786,2.786,0,0,1,.241,2.022,5.147,5.147,0,0,1-1.049,2.18,8.4,8.4,0,0,0-.561.993,7.718,7.718,0,0,1-.746,1.124,1.681,1.681,0,0,1-1.692.477,1.486,1.486,0,0,1-1.086-1.555m3.787-4.738c-.133.186-.247.325-.337.478a2.152,2.152,0,0,1-1.235,1.045.4.4,0,0,0-.2.281,8.364,8.364,0,0,1-.592,2.2,2.166,2.166,0,0,0-.148.733c-.029.39.177.514.524.316a.985.985,0,0,0,.335-.334c.162-.265.284-.553.437-.824a7.212,7.212,0,0,1,.61-1,3.858,3.858,0,0,0,.81-1.823,1.522,1.522,0,0,0-.2-1.078" transform="translate(-837.084 -646.661)" fill="#ea685c"/>
    <path id="Trazado_21202" data-name="Trazado 21202" d="M709.044,659.647a.6.6,0,0,1-.618-.575.612.612,0,0,1,.605-.623.6.6,0,0,1,.6.6.588.588,0,0,1-.585.6" transform="translate(-696.923 -638.832)" fill="#ea685c"/>
  </g>
</svg>
