<svg id="Grupo_19268" data-name="Grupo 19268" xmlns="http://www.w3.org/2000/svg" xmlns:xlink="http://www.w3.org/1999/xlink" width="82.735" height="83.426" viewBox="0 0 82.735 83.426">
  <defs>
    <clipPath id="clip-path">
      <rect id="Rect치ngulo_18320" data-name="Rect치ngulo 18320" width="82.735" height="83.426" fill="none"/>
    </clipPath>
    <clipPath id="clip-path-2">
      <rect id="Rect치ngulo_18321" data-name="Rect치ngulo 18321" width="82.735" height="57.852" fill="none"/>
    </clipPath>
  </defs>
  <g id="Grupo_19265" data-name="Grupo 19265">
    <g id="Grupo_19264" data-name="Grupo 19264" clip-path="url(#clip-path)">
      <path id="Trazado_21071" data-name="Trazado 21071" d="M146.94,81.874a.174.174,0,0,0,0-.349.174.174,0,0,0,0,.349" transform="translate(-129.717 -72.052)" fill="#fff"/>
      <path id="Trazado_21072" data-name="Trazado 21072" d="M144.145,4.459a.711.711,0,0,1-.71-.712l0-3.038a.711.711,0,1,1,1.421,0l0,3.037a.711.711,0,0,1-.712.71" transform="translate(-126.768 0)" fill="#e9685c" fill-rule="evenodd"/>
      <path id="Trazado_21073" data-name="Trazado 21073" d="M144.064,70.679a.711.711,0,0,1-.71-.712l0-2.625a.711.711,0,1,1,1.421,0l0,2.625a.711.711,0,0,1-.712.71" transform="translate(-126.696 -58.889)" fill="#e9685c" fill-rule="evenodd"/>
      <path id="Trazado_21074" data-name="Trazado 21074" d="M97.571,45.435l-2.625,0a.711.711,0,1,1,0-1.421l2.626,0a.711.711,0,0,1,0,1.421" transform="translate(-83.286 -38.896)" fill="#e9685c" fill-rule="evenodd"/>
      <path id="Trazado_21075" data-name="Trazado 21075" d="M170.31,45.528l-2.625,0a.711.711,0,0,1,0-1.421l2.625,0a.711.711,0,1,1,0,1.421" transform="translate(-147.572 -38.978)" fill="#e9685c" fill-rule="evenodd"/>
      <path id="Trazado_21076" data-name="Trazado 21076" d="M586.145,128.459a.711.711,0,0,1-.71-.712l0-3.038a.711.711,0,1,1,1.421,0l0,3.037a.711.711,0,0,1-.712.71" transform="translate(-517.407 -109.591)" fill="#e9685c" fill-rule="evenodd"/>
      <path id="Trazado_21077" data-name="Trazado 21077" d="M586.064,194.679a.711.711,0,0,1-.71-.712l0-2.625a.711.711,0,1,1,1.421,0l0,2.625a.711.711,0,0,1-.712.71" transform="translate(-517.336 -168.481)" fill="#e9685c" fill-rule="evenodd"/>
      <path id="Trazado_21078" data-name="Trazado 21078" d="M539.571,169.435l-2.625,0a.711.711,0,1,1,0-1.421l2.626,0a.711.711,0,1,1,0,1.421" transform="translate(-473.925 -148.487)" fill="#e9685c" fill-rule="evenodd"/>
      <path id="Trazado_21079" data-name="Trazado 21079" d="M612.31,169.528l-2.626,0a.711.711,0,1,1,0-1.421l2.625,0a.711.711,0,1,1,0,1.421" transform="translate(-538.212 -148.569)" fill="#e9685c" fill-rule="evenodd"/>
    </g>
  </g>
  <g id="Grupo_19267" data-name="Grupo 19267" transform="translate(0 1.574)">
    <g id="Grupo_19266" data-name="Grupo 19266" clip-path="url(#clip-path-2)">
      <path id="Trazado_21080" data-name="Trazado 21080" d="M204.71,91.241a8.719,8.719,0,1,0,8.707,8.73,8.728,8.728,0,0,0-8.707-8.73m-.02,15.178a6.459,6.459,0,1,1,6.468-6.451,6.465,6.465,0,0,1-6.468,6.451" transform="translate(-173.208 -82.212)" fill="#0a3642" fill-rule="evenodd"/>
      <path id="Trazado_21081" data-name="Trazado 21081" d="M380.65,84.42a8.548,8.548,0,0,0-.694-1.044q-.24-.315-.512-.6-.247.054-.495.112a14.78,14.78,0,0,0-2.03.641,6.389,6.389,0,0,1,.607.515,6.5,6.5,0,0,1,.813.95,6.458,6.458,0,1,1-11.743,3.7,6.522,6.522,0,0,1,.061-.879,6.236,6.236,0,0,1,.269-1.146,5.838,5.838,0,0,1,.272-.686,6.463,6.463,0,0,1-2.233-.527q-.129.317-.232.648a8.61,8.61,0,0,0-.275,1.149,8.718,8.718,0,1,0,17.315,1.46,8.672,8.672,0,0,0-1.124-4.289m-11.727-.68a6.3,6.3,0,0,1,.958-.664,6.442,6.442,0,0,1,5.033-.563,6.356,6.356,0,0,1,1.129.46,19.9,19.9,0,0,0,2.037-.634,1.557,1.557,0,0,0,.564-.328c-.18-.151-.365-.294-.558-.429a8.394,8.394,0,0,0-.9-.561,8.294,8.294,0,0,0-.984-.452l-.145.039a22.655,22.655,0,0,1-3.131.722,13.944,13.944,0,0,1-4.317-.124,8.084,8.084,0,0,0-.805.543,8.6,8.6,0,0,0-.715.6q-.254.24-.49.5a3.336,3.336,0,0,0,2.169.88l.157.011" transform="translate(-322.002 -72.78)" fill="#0a3642" fill-rule="evenodd"/>
      <path id="Trazado_21082" data-name="Trazado 21082" d="M310.272,246.566a1.13,1.13,0,1,1,0-2.259,6.466,6.466,0,0,0,6.466-6.451l.018-13.913a15.558,15.558,0,0,0-15.52-15.56l-3.195,0a15.558,15.558,0,0,0-15.561,15.52l-.018,13.913a6.466,6.466,0,0,0,6.451,6.467h.316a1.13,1.13,0,1,1,0,2.259h-.316a8.729,8.729,0,0,1-8.708-8.729l.018-13.913a17.821,17.821,0,0,1,17.823-17.777l3.195,0a17.819,17.819,0,0,1,17.777,17.822L319,237.859A8.728,8.728,0,0,1,310.272,246.566Z" transform="translate(-247.646 -183.742)" fill="#0a3642" fill-rule="evenodd"/>
      <path id="Trazado_21083" data-name="Trazado 21083" d="M355.444,410.974a1.13,1.13,0,0,1-1.128-1.131l.049-38.088a1.13,1.13,0,1,1,2.259,0l-.049,38.089a1.13,1.13,0,0,1-1.131,1.128" transform="translate(-313.144 -329.133)" fill="#0a3642" fill-rule="evenodd"/>
      <path id="Trazado_21084" data-name="Trazado 21084" d="M514.728,410.828A1.13,1.13,0,0,1,513.6,409.7l.049-38.088a1.13,1.13,0,1,1,2.259,0l-.049,38.088a1.13,1.13,0,0,1-1.131,1.128Z" transform="translate(-453.92 -329.005)" fill="#0a3642" fill-rule="evenodd"/>
      <path id="Trazado_21085" data-name="Trazado 21085" d="M107.055,262.256a8.727,8.727,0,0,1-8.707-8.728l.018-13.913a17.82,17.82,0,0,1,17.822-17.777l3.2,0a1.13,1.13,0,0,1,0,2.259l-3.2,0a15.558,15.558,0,0,0-15.56,15.521l-.018,13.912A6.466,6.466,0,0,0,107.058,260a1.13,1.13,0,1,1,0,2.259Z" transform="translate(-86.92 -197.634)" fill="#0a3642" fill-rule="evenodd"/>
      <path id="Trazado_21086" data-name="Trazado 21086" d="M184.682,410.4a1.13,1.13,0,0,1-1.128-1.131l.049-38.088a1.13,1.13,0,0,1,2.259,0l-.049,38.088a1.13,1.13,0,0,1-1.131,1.128Z" transform="translate(-162.225 -328.631)" fill="#0a3642" fill-rule="evenodd"/>
      <path id="Trazado_21087" data-name="Trazado 21087" d="M361.669,35.018a16.289,16.289,0,0,0-3.65-1.117c-.208-.036-.263-.134-.291-.317q-.285-1.773-.585-3.541a1.725,1.725,0,0,0-1.765-1.485,15.692,15.692,0,0,0-3.819.408.781.781,0,0,1-.5-.042c-.434-.182-.874-.35-1.314-.519a1.822,1.822,0,0,0-2.543,1.729,7.045,7.045,0,0,1-.213,1.414,5.79,5.79,0,0,1-.975,1.834.243.243,0,0,1-.2.064c-.547-.068-1.093-.148-1.639-.224a3.3,3.3,0,0,0-2.25.355,3.169,3.169,0,0,0-1.034,3.928,3.88,3.88,0,0,0,1.449,1.557,7.519,7.519,0,0,0,1.428.812,7.14,7.14,0,0,0,2.193.564,7.255,7.255,0,0,0,1.118.028,18.334,18.334,0,0,0,7.2-1.681c.75-.35,1.5-.689,2.278-.97a13.039,13.039,0,0,1,1.476-.449q.476-.112.953-.215c.837-.183,1.675-.351,2.512-.529a.848.848,0,0,0,.726-.733.833.833,0,0,0-.554-.869m-11.72-5.1.019,0c.953-.146,1.9-.359,2.852-.477.883-.109,1.776-.143,2.666-.174a.965.965,0,0,1,.956.827c.191,1.078.364,2.157.543,3.238.026.162.05.325.078.5-.619.171-1.227.339-1.835.505l-.145.039a22.649,22.649,0,0,1-3.13.722,13.943,13.943,0,0,1-4.317-.124c-.449-.084-.9-.19-1.345-.317a1.359,1.359,0,0,1-.131-.061c.229-.407.425-.827.684-1.2a5.778,5.778,0,0,0,1.062-3.322,1.105,1.105,0,0,1,1.5-1.048.052.052,0,0,1,.014.006,1.384,1.384,0,0,1,.412.211l-.241.014M346,35.312c.275.068.549.142.826.207l.093.022a14.612,14.612,0,0,0,7.44-.238c.614-.177,1.232-.344,1.849-.51l.749-.2c.062-.017.124-.031.216-.053.026.148.053.266.071.387.033.21,0,.341-.135.429a.723.723,0,0,1-.162.068c-.935.285-1.86.617-2.812.821l-.2.042a23.2,23.2,0,0,1-5.033.563c-.14,0-.281-.006-.423-.011-.369-.014-.739-.04-1.106-.087a2.072,2.072,0,0,1-1.118-.5c-.056-.05-.106-.092-.148-.131-.3-.268-.25-.271-.11-.81m15.311.627c-.947.205-1.9.393-2.841.607q-.247.054-.495.112a14.786,14.786,0,0,0-2.029.641c-.647.249-1.283.533-1.913.829a17,17,0,0,1-7.477,1.634c-.112,0-.222,0-.331-.011a6.465,6.465,0,0,1-2.233-.527,6.969,6.969,0,0,1-2.067-1.418,1.885,1.885,0,0,1-.594-1.4,4.335,4.335,0,0,1,.117-1.157,1.887,1.887,0,0,1,1.846-1.362c.771.022,1.541.138,2.289.211-.14.588-.268,1.141-.406,1.694a.493.493,0,0,0,.1.446,3.181,3.181,0,0,0,.342.389,3.337,3.337,0,0,0,2.169.88l.157.011a21.85,21.85,0,0,0,4.288-.222,24.788,24.788,0,0,0,2.832-.544,19.907,19.907,0,0,0,2.037-.634,1.557,1.557,0,0,0,.565-.328,1.1,1.1,0,0,0,.247-1.045c-.006-.042,0-.084-.009-.163.415.1.815.163,1.2.288.751.241,1.493.512,2.235.781.073.026.124.117.185.176a.761.761,0,0,1-.212.12" transform="translate(-301.03 -26.551)" fill="#0a3642"/>
      <path id="Trazado_21088" data-name="Trazado 21088" d="M354.5,27.144a1.993,1.993,0,0,0-1.252-2.07,17.856,17.856,0,0,0-3.337-1.084c-.149-.922-.319-1.961-.5-3.017a2.9,2.9,0,0,0-2.9-2.454,17.133,17.133,0,0,0-3.992.412c-.42-.174-.837-.333-1.242-.488a3.014,3.014,0,0,0-2.788.271,3.067,3.067,0,0,0-1.337,2.515,5.865,5.865,0,0,1-.181,1.174,3.113,3.113,0,0,1-.462.938l-.656-.09-.4-.058a4.458,4.458,0,0,0-3.015.513,4.315,4.315,0,0,0-1.505,5.379,4.937,4.937,0,0,0,1.841,2.048,8.673,8.673,0,0,0,1.835,1.015,8.5,8.5,0,0,0,2.2.561,8.587,8.587,0,0,0,1,.058c.145,0,.289,0,.434-.011a19.469,19.469,0,0,0,7.647-1.788,24.343,24.343,0,0,1,2.6-1.078c.308-.1.619-.191.93-.264.456-.107.917-.208,1.38-.306l1.022-.215q.52-.107,1.039-.218a2,2,0,0,0,1.633-1.667l.054-.033Zm-16.539-2.622a5.777,5.777,0,0,0,1.062-3.322,1.105,1.105,0,0,1,1.5-1.048.052.052,0,0,1,.014.006.717.717,0,0,1,.171.225c.129.218.278.526.378.661.953-.146,1.9-.359,2.852-.477.883-.109,1.776-.143,2.666-.174a.965.965,0,0,1,.956.827c.191,1.078.364,2.157.543,3.238.026.162.05.325.078.5-.619.171-1.227.339-1.835.505l-.145.039a22.651,22.651,0,0,1-3.131.722,13.943,13.943,0,0,1-4.317-.124c-.449-.084-.9-.19-1.345-.317a1.365,1.365,0,0,1-.131-.061c.229-.407.425-.827.684-1.2m14.471,2.544c-.947.205-1.9.393-2.841.607q-.247.054-.495.112a14.782,14.782,0,0,0-2.029.641c-.647.249-1.283.533-1.913.829a17,17,0,0,1-7.477,1.634c-.112,0-.222,0-.331-.011a6.464,6.464,0,0,1-2.233-.527,6.969,6.969,0,0,1-2.067-1.418,1.885,1.885,0,0,1-.594-1.4,4.34,4.34,0,0,1,.117-1.157,1.887,1.887,0,0,1,1.846-1.362c.771.022,1.541.138,2.289.211-.14.588-.267,1.141-.406,1.694a.493.493,0,0,0,.1.446,3.184,3.184,0,0,0,.342.389,3.336,3.336,0,0,0,2.169.88l.157.011a21.848,21.848,0,0,0,4.288-.222,24.786,24.786,0,0,0,2.832-.544,19.908,19.908,0,0,0,2.037-.634,1.557,1.557,0,0,0,.564-.328,1.1,1.1,0,0,0,.247-1.045c-.006-.042,0-.084-.009-.163.415.1.815.163,1.2.288.751.241,1.493.512,2.235.781.073.026.124.117.185.176a.759.759,0,0,1-.211.12" transform="translate(-292.152 -17.679)" fill="#0a3642"/>
    </g>
  </g>
</svg>
