<svg xmlns="http://www.w3.org/2000/svg" width="47.1" height="47.824" viewBox="0 0 47.1 47.824">
  <g id="Grupo_18600" data-name="Grupo 18600" transform="translate(-1437.058 -18.268)">
    <g id="Grupo_18598" data-name="Grupo 18598" transform="translate(450.377 -568.324)">
      <path id="Trazado_20448" data-name="Trazado 20448" d="M1213.236,635.093a14.842,14.842,0,0,1,13.741,11.5,24.252,24.252,0,0,1,.389,3.185.784.784,0,0,1-.745.96c-.465.012-.744-.347-.819-.926a24.867,24.867,0,0,0-.552-3.573,12.921,12.921,0,0,0-6.608-8.095,12.555,12.555,0,0,0-5.63-1.5,4.281,4.281,0,0,1-.686-.07.7.7,0,0,1-.609-.7.674.674,0,0,1,.563-.776A5.468,5.468,0,0,1,1213.236,635.093Z" transform="translate(-199.105 -48.484)" fill="#103642"/>
      <path id="Trazado_20449" data-name="Trazado 20449" d="M1212.957,675.8a10.225,10.225,0,0,1,9.695,9.977c.011.6-.292.993-.776.994-.462,0-.758-.353-.79-.945a8.557,8.557,0,0,0-5.868-7.988,15.521,15.521,0,0,0-2.287-.449c-.2-.036-.4-.027-.593-.066a.731.731,0,0,1-.645-.809.75.75,0,0,1,.759-.71C1212.619,675.786,1212.788,675.8,1212.957,675.8Z" transform="translate(-199.084 -84.508)" fill="#103642"/>
      <path id="Trazado_20450" data-name="Trazado 20450" d="M1212.736,716.684A5.516,5.516,0,0,1,1217.95,722a.826.826,0,0,1-.739.942.787.787,0,0,1-.819-.805,4.068,4.068,0,0,0-1.5-3.031,3.858,3.858,0,0,0-2.055-.834,4.138,4.138,0,0,1-.5-.061.737.737,0,0,1-.636-.819.748.748,0,0,1,.764-.7C1212.552,716.679,1212.644,716.684,1212.736,716.684Z" transform="translate(-199.086 -120.687)" fill="#103642"/>
    </g>
    <path id="Trazado_20447" data-name="Trazado 20447" d="M995.6,580.278a3.905,3.905,0,0,1,2.273,1.863c1.913,2.922,3.868,5.816,5.8,8.724a2.773,2.773,0,0,1-.039,3.452,3.851,3.851,0,0,1-.631.6c-1.047.826-2.1,1.641-3.154,2.46a1.3,1.3,0,0,0-.406,1.952,29.7,29.7,0,0,0,4.906,6.742,47.96,47.96,0,0,0,7.63,6.887c.933.638,1.93,1.186,2.918,1.739a1.211,1.211,0,0,0,1.727-.419c.841-1.073,1.672-2.155,2.515-3.228a2.8,2.8,0,0,1,4.052-.667q4.593,3.052,9.175,6.12a2.773,2.773,0,0,1,.9,4.033c-.657,1.106-1.368,2.182-1.978,3.313a6.349,6.349,0,0,1-5.019,3.353,17.657,17.657,0,0,1-8.324-.888,36.938,36.938,0,0,1-11.181-6.412,74.971,74.971,0,0,1-14.3-14.867,31.573,31.573,0,0,1-4.99-9.818c-.342-1.216-.487-2.488-.724-3.734a2.423,2.423,0,0,0-.078-.257V589.11c.062-.435.126-.869.186-1.3a5.756,5.756,0,0,1,2.367-4.373c1.763-1.136,3.629-2.11,5.451-3.154Zm-7.433,9.6a19.947,19.947,0,0,0,.854,5.125,31.419,31.419,0,0,0,4.747,9.178,74.3,74.3,0,0,0,12.534,13.333,40.18,40.18,0,0,0,10.658,6.776,16.926,16.926,0,0,0,9.151,1.351,4.782,4.782,0,0,0,3.731-2.433c.646-1.164,1.366-2.288,2.05-3.431a1.277,1.277,0,0,0-.443-1.99q-4.528-3.025-9.06-6.045a1.291,1.291,0,0,0-2.055.326c-.841,1.074-1.669,2.157-2.515,3.227a2.747,2.747,0,0,1-3.681.785c-.743-.4-1.478-.809-2.194-1.252a38.678,38.678,0,0,1-6.736-5.6,36.851,36.851,0,0,1-7.164-9.156,2.828,2.828,0,0,1,.806-3.9c1.063-.829,2.131-1.652,3.191-2.486a1.255,1.255,0,0,0,.338-1.917q-3.075-4.632-6.166-9.255a1.232,1.232,0,0,0-1.828-.4c-1.251.742-2.5,1.5-3.744,2.243a4.031,4.031,0,0,0-1.989,2.586C988.437,587.9,988.33,588.893,988.172,589.874Z" transform="translate(450.377 -561.278)" fill="#103642"/>
  </g>
</svg>
