<svg id="Grupo_19394" data-name="Grupo 19394" xmlns="http://www.w3.org/2000/svg" xmlns:xlink="http://www.w3.org/1999/xlink" width="33.946" height="33.946" viewBox="0 0 33.946 33.946">
  <defs>
    <clipPath id="clip-path">
      <rect id="Rectángulo_18382" data-name="Rectángulo 18382" width="33.946" height="33.946" fill="none"/>
    </clipPath>
  </defs>
  <g id="Grupo_19359" data-name="Grupo 19359" clip-path="url(#clip-path)">
    <path id="Trazado_21225" data-name="Trazado 21225" d="M0,29.627V4.308a.348.348,0,0,0,.053-.081A2.018,2.018,0,0,1,2.174,2.651q1.968,0,3.937,0h.716c0-.2,0-.358,0-.52A2.056,2.056,0,0,1,7.33.668,2.4,2.4,0,0,1,8.484,0h.663a.8.8,0,0,0,.118.055A1.98,1.98,0,0,1,10.8,2.067c0,.184,0,.369,0,.568H21.541c0-.2,0-.384,0-.569a1.8,1.8,0,0,1,.6-1.482A6.225,6.225,0,0,1,23.2,0h.663a.807.807,0,0,0,.119.055A1.98,1.98,0,0,1,25.517,2.07c0,.185,0,.369,0,.581h.392q2.121,0,4.241,0a2.854,2.854,0,0,1,.495.028,2.025,2.025,0,0,1,1.7,2.125q0,9.179,0,18.358a.975.975,0,0,0,.222.658,5.906,5.906,0,0,1,1.284,4.874A5.936,5.936,0,0,1,29.318,33.7a5.979,5.979,0,0,1-6.511-2.165.6.6,0,0,0-.52-.258c-1.5.011-3,.006-4.507.006-.475,0-.95.009-1.425,0a.642.642,0,0,1-.652-.652.651.651,0,0,1,.64-.666c.1-.007.2,0,.3,0h5.2l-.4-1.856H4.054c-.655,0-.873-.218-.873-.874q0-7.6,0-15.21c0-.675.211-.883.9-.883h24.19c.684,0,.895.208.895.885q0,4.623,0,9.245v.321l1.831.769V9.279H6.284a3.139,3.139,0,0,1-.4-.009.659.659,0,0,1,.007-1.309,3.041,3.041,0,0,1,.364-.007H31.019c0-1.079,0-2.116,0-3.152,0-.567-.262-.823-.837-.824q-2.137,0-4.275,0h-.389c0,.237,0,.444,0,.651a1.987,1.987,0,1,1-3.975.006c0-.215,0-.431,0-.639H10.8c0,.247.007.477,0,.706a1.987,1.987,0,0,1-3.971-.009c-.007-.229,0-.458,0-.716H2.295c-.759,0-.969.207-.969.958q0,12.029,0,24.057c0,.756.209.966.962.966q4.341,0,8.682,0a.665.665,0,1,1,.024,1.322q-4.507,0-9.013,0A1.991,1.991,0,0,1,.106,29.9c-.032-.092-.07-.181-.106-.272m32.609-1.915a4.9,4.9,0,1,0-4.92,4.9,4.911,4.911,0,0,0,4.92-4.9M13.031,12.484H9.452v3.863h3.579Zm6.291,3.868h3.562V12.47H19.323ZM9.452,26.759h3.573V22.883H9.452Zm3.579-9.039H9.452v3.8h3.579Zm6.29,3.8h3.563V17.706H19.321Zm-14.8-5.167H8.087V12.476H4.526Zm13.42-3.873H14.4v3.879h3.546Zm9.876,0H24.254v3.862h3.567Zm-19.74,10.4H4.53v3.88H8.082ZM14.4,26.756h3.547v-3.88H14.4ZM4.53,21.52H8.081V17.707H4.53Zm9.85-.007h3.571v-3.79H14.381Zm9.882-.026h3.552V17.707H24.263ZM19.32,22.883v3.882h2.208c.025-.094.053-.177.069-.263a5.4,5.4,0,0,1,1.047-2.4,1.571,1.571,0,0,0,.246-1.22ZM9.478,3.309c0-.418,0-.837,0-1.255a.664.664,0,1,0-1.322.009q-.008,1.255,0,2.51a.665.665,0,1,0,1.322-.009c.006-.418,0-.837,0-1.255m14.714.025c0-.429.005-.859,0-1.288a.663.663,0,1,0-1.321-.008q-.01,1.272,0,2.543a.663.663,0,1,0,1.321.007c.008-.418,0-.837,0-1.255" fill="#ea685c"/>
    <path id="Trazado_21226" data-name="Trazado 21226" d="M30.635,89.851a.66.66,0,1,1-.67.634.668.668,0,0,1,.67-.634" transform="translate(-27.312 -81.895)" fill="#ea685c"/>
    <path id="Trazado_21227" data-name="Trazado 21227" d="M148.72,339.017a.676.676,0,0,1-.647.668.66.66,0,1,1-.016-1.32.676.676,0,0,1,.663.652" transform="translate(-134.35 -308.405)" fill="#ea685c"/>
    <path id="Trazado_21228" data-name="Trazado 21228" d="M290.314,294.86l1.817-1.818c.094-.094.183-.193.285-.276a.658.658,0,0,1,.9.027.637.637,0,0,1,.026.9c-.2.233-.43.444-.648.663q-.889.891-1.78,1.78a.7.7,0,0,1-1.163,0q-.6-.594-1.194-1.195a.659.659,0,0,1-.079-.994.666.666,0,0,1,1.018.064c.272.27.531.554.816.854" transform="translate(-262.762 -266.692)" fill="#ea685c"/>
  </g>
</svg>
