<svg xmlns="http://www.w3.org/2000/svg" width="30.165" height="26.608" viewBox="0 0 30.165 26.608">
  <g id="Grupo_19393" data-name="Grupo 19393" transform="translate(0 0)">
    <path id="Trazado_21203" data-name="Trazado 21203" d="M493.84,41.828l-1.072.493a1.594,1.594,0,0,1-2.332-1.463c-.01-.382.066-.765.088-1.149.005-.094-.018-.242-.079-.278-.722-.417-.77-1.151-.912-1.851a2.025,2.025,0,0,1,.438-1.7,11.948,11.948,0,0,0,.8-1.443l-1.065-.491a2.356,2.356,0,0,1-1.068-1.82,1.551,1.551,0,0,1,1.446-1.273,2.025,2.025,0,0,1,1.224.306,1.536,1.536,0,0,0,1.394.142.859.859,0,0,1,1.084.388c.289.411.561.833.848,1.246a1.028,1.028,0,0,1,.138.919.555.555,0,0,0,.221.689,5.891,5.891,0,0,1,.47.43c.144-.271.287-.507.391-.758a.356.356,0,0,0-.054-.307,1.282,1.282,0,0,1-.261-1.2c.043-.2.056-.4.088-.6a.93.93,0,0,1,1.125-.822c.115.016.231.026.406.046A1.872,1.872,0,0,1,497.6,29.8a1.153,1.153,0,0,1,1.239-.612c.759.119,1.515.262,2.268.416a.865.865,0,0,1,.65.608c.066.19.126.382.184.561.04.014.064.032.079.027a2.16,2.16,0,0,1,2.128.551.39.39,0,0,0,.485.019,10.031,10.031,0,0,1,1.538-.689,2.815,2.815,0,0,1,1.928.286c.3.127.523.112.7-.176a.506.506,0,0,1,.108-.118,2.254,2.254,0,0,0,.89-1.961c-.033-.714.5-1.061,1.215-.922q.786.153,1.568.325a1.7,1.7,0,0,1,1.376,1.284,1.377,1.377,0,0,0,.853,1.022,1.243,1.243,0,0,1,.816,1.19c.017.383.1.763.139,1.145a.921.921,0,0,1-.989,1.062,2.491,2.491,0,0,1-1.37-.381c-.173-.122-.369-.212-.552-.314-.631.548-.589.319-.307,1.354.02.007.042.022.059.018,1.015-.236,1.374,0,1.844.92a3.406,3.406,0,0,1,.161,2.67,4.192,4.192,0,0,1-1.4,1.953,1.694,1.694,0,0,1-.928.257,12.739,12.739,0,0,1-1.378-.05c0,.349-.008.685.008,1.02,0,.049.11.119.179.135a1.67,1.67,0,0,1,.089,3.255c-.115.011-.233-.021-.35-.018a2.416,2.416,0,0,0-.288.039,1.245,1.245,0,0,0,.084.277c.1.166.212.321.318.481a1.857,1.857,0,0,1,.232,1.419.92.92,0,0,1-1.425.592,4.9,4.9,0,0,1-1.7-1.756,2.611,2.611,0,0,1-.209-.947,1.839,1.839,0,0,1,.041-.51c.026-.175-.036-.254-.213-.277a4.779,4.779,0,0,1-.629-.119.9.9,0,0,1-.7-.884c-.011-.341,0-.682,0-1.036a6.283,6.283,0,0,0-.883-.223.482.482,0,0,0-.407.188,2.509,2.509,0,0,1-1.713,1.546,1.2,1.2,0,0,0-.159.089c.11.274.216.539.324.8a1.025,1.025,0,0,1-.048.925c-.235.431-.455.871-.7,1.3a.927.927,0,0,1-1.612.125q-.317-.4-.612-.824a.825.825,0,0,1-.168-.34,12.062,12.062,0,0,1-.249-2.96c.022-.18.063-.359.076-.539.017-.232-.1-.384-.337-.365a1.411,1.411,0,0,1-1.15-.517,5.9,5.9,0,0,1-1.607-2.691.491.491,0,0,0-.4-.393c-.361-.094-.707-.252-1.07-.329a5.273,5.273,0,0,0-1.071-.1c-.287,0-.555.645-.392.895.046.071.113.129.16.2a.511.511,0,0,0,.679.259,1.074,1.074,0,0,1,1.116.318c.3.294.6.584.879.89a1.2,1.2,0,0,1-.215,1.864c-.471.313-.957.607-1.449.885a.92.92,0,0,1-1.385-.6c-.042-.152-.078-.3-.125-.486M510.3,46.679c.04-.524.044-.527-.489-1.331a.937.937,0,0,1-.049-1.135,1.059,1.059,0,0,1,1.156-.506.306.306,0,0,0,.2,0,.8.8,0,0,0,.128-1.223,1.5,1.5,0,0,0-.538-.255.932.932,0,0,1-.7-.863,10.21,10.21,0,0,1,.014-1.122.938.938,0,0,1,1.039-.9,4.565,4.565,0,0,1,.671.049,1.382,1.382,0,0,0,1.524-.7,2.642,2.642,0,0,0,.361-2.9c-.268-.541-.242-.555-.829-.419a.913.913,0,0,1-1.126-.644c-.089-.307-.148-.623-.217-.936a.863.863,0,0,1,.223-.8,7.137,7.137,0,0,1,.521-.521.882.882,0,0,1,1.066-.146c.247.127.475.3.73.4a8.076,8.076,0,0,0,.884.246c-.052-.445-.1-.8-.131-1.161a.64.64,0,0,0-.423-.635,1.764,1.764,0,0,1-1.188-1.427.541.541,0,0,0-.09-.238c-.116-.148-.228-.362-.383-.407-.64-.185-1.3-.316-2.02-.485,0,.388,0,.7,0,1a1.192,1.192,0,0,1-.36.894c-.358.368-.7.748-1.052,1.125a.96.96,0,0,1-1.1.282c-.151-.053-.307-.1-.452-.162a2.128,2.128,0,0,0-2.3.215,1.408,1.408,0,0,1-1.992-.051,1.159,1.159,0,0,0-1.158-.245.9.9,0,0,1-1.161-.682,1.774,1.774,0,0,0-.113-.332c-.053-.089-.139-.2-.228-.218-.638-.132-1.278-.251-1.921-.353a.447.447,0,0,0-.37.1,1.5,1.5,0,0,0-.4,1.01.905.905,0,0,1-1.029,1.016c-.155-.011-.31-.031-.469-.047-.1.528-.263,1.012.161,1.472a.73.73,0,0,1,.038.823c-.154.317-.307.636-.487.938a.8.8,0,0,1-.923.43,2.628,2.628,0,0,1-1.48-1.33.5.5,0,0,1-.024-.375,1.223,1.223,0,0,0-.33-1.282,2.069,2.069,0,0,1-.268-.4.384.384,0,0,0-.583-.215,1.4,1.4,0,0,1-1.348-.094,6.207,6.207,0,0,0-.7-.323.848.848,0,0,0-.877.114.352.352,0,0,0-.124.5,1.463,1.463,0,0,0,.921.9,2.753,2.753,0,0,1,.607.286.881.881,0,0,1,.433,1.013,4.645,4.645,0,0,1-.915,1.886.791.791,0,0,0-.242.5c.078.614-.009,1.3.628,1.722a.971.971,0,0,1,.4,1.043,6.376,6.376,0,0,0-.094.988.729.729,0,0,0,1.1.713c.329-.152.655-.313.99-.454a.926.926,0,0,1,1.3.637l.139.494c.485-.3.935-.563,1.377-.843.263-.167.282-.349.072-.578-.166-.181-.36-.338-.514-.529a.714.714,0,0,0-.965-.286.436.436,0,0,1-.189.028,1.889,1.889,0,0,1-1.433-1.69,4.878,4.878,0,0,1,.214-.77,1.137,1.137,0,0,1,1.035-.786,3.115,3.115,0,0,1,1.545.163,5.564,5.564,0,0,0,.944.3,1.259,1.259,0,0,1,1.019,1.017,4.8,4.8,0,0,0,1.408,2.327.719.719,0,0,0,.532.224,1.186,1.186,0,0,1,1.187,1.3,4.886,4.886,0,0,0-.076.6c.044.776.11,1.551.171,2.325.041.52.462.8.736,1.217a5.88,5.88,0,0,1,.354-.643,1.38,1.38,0,0,0,.111-1.615.868.868,0,0,1,.506-1.285,2.308,2.308,0,0,0,1.407-1.277,1.1,1.1,0,0,1,1.3-.579c.281.061.56.137.838.213a.958.958,0,0,1,.8,1.047c0,.305,0,.611,0,.907.123.025.2.045.27.054,1.337.157,1.366.692,1.235,1.714a.378.378,0,0,0-.011.1.954.954,0,0,0,.066.371,3.812,3.812,0,0,0,1.493,1.487" transform="translate(-488.635 -27.756)" fill="#ea685c"/>
    <path id="Trazado_21204" data-name="Trazado 21204" d="M737.846,297.669a6.3,6.3,0,0,1,.857.36c.319.19.48.2.7-.088a1.164,1.164,0,0,1,1.468-.5,1.966,1.966,0,0,1,1.427,1.451,1.058,1.058,0,0,1-.306,1.2,2.277,2.277,0,0,1-2.391.66c-.788-.259-1.605-.428-2.406-.652-.6-.169-.887-.506-.891-1.017a1.382,1.382,0,0,1,.942-1.245,5.514,5.514,0,0,1,.566-.1l.035-.071m.068.969c-.186.025-.32,0-.391.062a2.278,2.278,0,0,0-.313.374,1.318,1.318,0,0,0,.3.183c.792.218,1.6.393,2.378.643a1.414,1.414,0,0,0,1.446-.441.41.41,0,0,0,.073-.368,2.152,2.152,0,0,0-.34-.577.669.669,0,0,0-1,.027,1.266,1.266,0,0,1-1.865.242,1.525,1.525,0,0,0-.3-.145" transform="translate(-715.076 -274.262)" fill="#ea685c"/>
    <path id="Trazado_21205" data-name="Trazado 21205" d="M764.08,213.5c.078.278.14.563.24.833a.98.98,0,0,1-.32,1.2,1.167,1.167,0,0,0-.493.943,3.147,3.147,0,0,1-.057.347,1.4,1.4,0,0,1-2.233.858c-.159-.125-.311-.26-.463-.395a1.279,1.279,0,0,1,.356-2.169.5.5,0,0,0,.23-.269c.246-.67.471-1.348.712-2.021a1.068,1.068,0,0,1,1-.72.909.909,0,0,1,.96.5,3.835,3.835,0,0,1,.2.852l-.135.035m-.911.14.094-.024c0-.139.009-.278,0-.415-.006-.063-.05-.168-.089-.174a.3.3,0,0,0-.228.064.68.68,0,0,0-.121.255q-.331.95-.657,1.9a1,1,0,0,1-.685.7c-.3.08-.343.347-.235.486a1.769,1.769,0,0,0,.766.606c.354.115.536-.093.588-.59a1.886,1.886,0,0,1,.783-1.564c.059-.038.079-.2.057-.291-.076-.322-.177-.639-.269-.958" transform="translate(-737.013 -196.302)" fill="#ea685c"/>
    <path id="Trazado_21206" data-name="Trazado 21206" d="M682.162,258.994a1.443,1.443,0,0,1-1.111-.339,5.141,5.141,0,0,0-.661-.453,3.956,3.956,0,0,1-1.758-2.244,1.007,1.007,0,0,1,1.137-1.387,3.411,3.411,0,0,1,.907.359,4.532,4.532,0,0,1,.683.476,1.381,1.381,0,0,0,1.017.38.829.829,0,0,1,.4.1,1.946,1.946,0,0,1,.794,2.5,1.355,1.355,0,0,1-1.407.606m.017-.824c.55-.069.843-.342.7-.728a2.772,2.772,0,0,0-.391-.657.364.364,0,0,0-.281-.111,1.755,1.755,0,0,1-1.26-.459c-.269-.21-.552-.4-.837-.591a1.139,1.139,0,0,0-.378-.154c-.264-.056-.316.01-.224.256a2.978,2.978,0,0,0,1.307,1.681c.251.14.469.338.718.481a6.043,6.043,0,0,0,.645.281" transform="translate(-662.28 -235.111)" fill="#ea685c"/>
    <path id="Trazado_21207" data-name="Trazado 21207" d="M803.562,257.689a1.358,1.358,0,0,1,1.211.784.975.975,0,0,1-.142,1.134,1.477,1.477,0,0,1-.138.176.45.45,0,0,0-.057.7.886.886,0,0,1-.332,1.294,1.426,1.426,0,0,1-1.839-.234c-.1-.134-.24-.244-.348-.375a1.392,1.392,0,0,1-.282-1.408,11.568,11.568,0,0,1,.564-1.357,1.03,1.03,0,0,1,.461-.46,5.668,5.668,0,0,1,.9-.254m.116,3.277c-.032-.053-.057-.1-.087-.14a1.02,1.02,0,0,1,.026-1.378c.09-.119.176-.243.277-.353.121-.133.1-.234-.025-.353a.668.668,0,0,0-.923.175c-.13.292-.237.6-.371.886a.7.7,0,0,0,.08.856c.276.308.539.587,1.024.309" transform="translate(-774.732 -237.982)" fill="#ea685c"/>
  </g>
</svg>
