<svg xmlns="http://www.w3.org/2000/svg" xmlns:xlink="http://www.w3.org/1999/xlink" width="24.954" height="32.253" viewBox="0 0 24.954 32.253">
  <defs>
    <clipPath id="clip-path">
      <rect id="Rectángulo_18381" data-name="Rectángulo 18381" width="24.954" height="32.253" fill="none"/>
    </clipPath>
  </defs>
  <g id="Grupo_19395" data-name="Grupo 19395" transform="translate(467 -315.187)">
    <g id="Grupo_19357" data-name="Grupo 19357" transform="translate(-467 315.187)" clip-path="url(#clip-path)">
      <path id="Trazado_21210" data-name="Trazado 21210" d="M124.784,242.133H122a.449.449,0,0,1-.449-.449V230.971a.449.449,0,0,1,.449-.449h2.781a.448.448,0,0,1,.449.449v10.714a.448.448,0,0,1-.449.449m-2.333-.9h1.884v-9.817h-1.884Z" transform="translate(-110.67 -209.881)" fill="#ea685c"/>
      <path id="Trazado_21211" data-name="Trazado 21211" d="M125.16,127.391H122.38a.449.449,0,0,1-.449-.449v-3.89a.449.449,0,0,1,.449-.449h2.781a.448.448,0,0,1,.449.449v3.89a.449.449,0,0,1-.449.449m-2.332-.9h1.884V123.5h-1.884Z" transform="translate(-111.013 -111.626)" fill="#ea685c"/>
      <path id="Trazado_21212" data-name="Trazado 21212" d="M124.784,6.265H122a.449.449,0,0,1-.449-.449V.449A.449.449,0,0,1,122,0h2.781a.448.448,0,0,1,.449.449V5.816a.449.449,0,0,1-.449.449m-2.333-.9h1.884V.9h-1.884Z" transform="translate(-110.67)" fill="#ea685c"/>
      <path id="Trazado_21213" data-name="Trazado 21213" d="M22.869,177.478a.449.449,0,0,1-.333-.147l-2.683-2.959H3.41a.449.449,0,0,1-.308-.123L.14,171.443a.448.448,0,0,1,0-.652L3.1,167.986a.449.449,0,0,1,.308-.123H22.869a.449.449,0,0,1,.449.449v8.717a.448.448,0,0,1-.449.449m-19.28-4H20.053a.448.448,0,0,1,.332.147l2.035,2.245V168.76H3.589L1.1,171.117Z" transform="translate(0 -152.832)" fill="#ea685c"/>
      <path id="Trazado_21214" data-name="Trazado 21214" d="M18.719,69.558a.448.448,0,0,1-.449-.449V60.392a.449.449,0,0,1,.449-.449H38.177a.449.449,0,0,1,.308.123l2.962,2.806a.449.449,0,0,1,0,.651l-2.962,2.805a.449.449,0,0,1-.308.123H21.734l-2.683,2.96a.449.449,0,0,1-.332.147m.449-8.718v7.106L21.2,65.7a.449.449,0,0,1,.333-.147H38L40.487,63.2,38,60.84Z" transform="translate(-16.634 -54.576)" fill="#ea685c"/>
      <path id="Trazado_21215" data-name="Trazado 21215" d="M52.107,209.985H40.781a.449.449,0,1,1,0-.9H52.107a.449.449,0,0,1,0,.9" transform="translate(-36.721 -190.366)" fill="#ea685c"/>
      <path id="Trazado_21216" data-name="Trazado 21216" d="M53.621,190.13H40.781a.449.449,0,1,1,0-.9h12.84a.449.449,0,0,1,0,.9" transform="translate(-36.721 -172.289)" fill="#ea685c"/>
      <path id="Trazado_21217" data-name="Trazado 21217" d="M41.305,351.072h-18.4a.449.449,0,0,1,0-.9h18.4a.449.449,0,0,1,0,.9" transform="translate(-20.447 -318.82)" fill="#ea685c"/>
      <path id="Trazado_21218" data-name="Trazado 21218" d="M54.565,299.41a.448.448,0,0,1-.449-.449v-5.081a.449.449,0,1,1,.9,0v5.081a.448.448,0,0,1-.449.449" transform="translate(-49.27 -267.157)" fill="#ea685c"/>
      <path id="Trazado_21219" data-name="Trazado 21219" d="M83.531,325.242a.449.449,0,0,1-.449-.449v-2.54a.449.449,0,0,1,.9,0v2.54a.449.449,0,0,1-.449.449" transform="translate(-75.643 -292.989)" fill="#ea685c"/>
      <path id="Trazado_21220" data-name="Trazado 21220" d="M184.178,322.852a.448.448,0,0,1-.449-.449v-2.54a.449.449,0,0,1,.9,0v2.54a.448.448,0,0,1-.449.449" transform="translate(-167.277 -290.813)" fill="#ea685c"/>
      <line id="Línea_49" data-name="Línea 49" x1="9.523" transform="translate(7.995 9.614)" fill="#ea685c"/>
      <path id="Trazado_21221" data-name="Trazado 21221" d="M94.253,103.254H84.73a.449.449,0,0,1,0-.9h9.523a.449.449,0,0,1,0,.9" transform="translate(-76.734 -93.192)" fill="#ea685c"/>
      <line id="Línea_50" data-name="Línea 50" x1="13.499" transform="translate(8.018 7.874)" fill="#ea685c"/>
      <path id="Trazado_21222" data-name="Trazado 21222" d="M98.487,83.819h-13.5a.449.449,0,1,1,0-.9h13.5a.449.449,0,0,1,0,.9" transform="translate(-76.969 -75.497)" fill="#ea685c"/>
      <path id="Trazado_21223" data-name="Trazado 21223" d="M45.461,82.709l-.237-.565H43.918l-.237.565H43.15l1.173-2.674h.531l1.157,2.674Zm-1.36-1h.94l-.466-1.123Z" transform="translate(-39.286 -72.868)" fill="#ea685c"/>
      <path id="Trazado_21224" data-name="Trazado 21224" d="M206.816,186.927a.573.573,0,0,1,.247.489.585.585,0,0,1-.466.592.692.692,0,0,1,.418.229.67.67,0,0,1,.151.447.636.636,0,0,1-.266.541,1.192,1.192,0,0,1-.724.2h-1.222v-2.674h1.188a1.124,1.124,0,0,1,.674.18m-.389.825a.293.293,0,0,0,.113-.244.279.279,0,0,0-.113-.237.5.5,0,0,0-.312-.08h-.649v.649h.649a.494.494,0,0,0,.312-.088m.071,1.135a.307.307,0,0,0,.137-.267.3.3,0,0,0-.137-.258.654.654,0,0,0-.382-.09h-.649v.707h.649a.644.644,0,0,0,.382-.092" transform="translate(-186.602 -170.025)" fill="#ea685c"/>
    </g>
  </g>
</svg>
