<svg id="Grupo_19396" data-name="Grupo 19396" xmlns="http://www.w3.org/2000/svg" xmlns:xlink="http://www.w3.org/1999/xlink" width="31.414" height="32.603" viewBox="0 0 31.414 32.603">
  <defs>
    <clipPath id="clip-path">
      <rect id="Rectángulo_18383" data-name="Rectángulo 18383" width="31.414" height="32.603" fill="none"/>
    </clipPath>
  </defs>
  <g id="Grupo_19361" data-name="Grupo 19361" clip-path="url(#clip-path)">
    <path id="Trazado_21229" data-name="Trazado 21229" d="M25,0c.017.013.031.032.05.037a2.769,2.769,0,0,1,2.311,3.008c0,.17,0,.34,0,.509a1.2,1.2,0,0,1-.576,1.039.433.433,0,0,0-.235.431c.012.752,0,1.5,0,2.287.136.006.248.016.36.016.8,0,1.592,0,2.388,0a2,2,0,0,1,2.09,1.989c.034,1,.014,1.995.008,2.992a.479.479,0,1,1-.949-.005c-.007-.923,0-1.846,0-2.77A1.1,1.1,0,0,0,29.2,8.284H17.452a1.091,1.091,0,0,0-1.24,1.226c0,1.284,0,2.568,0,3.852,0,.192.029.29.247.354a1.79,1.79,0,0,1,1.3,1.8q.006,4.139,0,8.277v.394h.729v-.4q0-6.717,0-13.435a2.71,2.71,0,0,1,.016-.413.422.422,0,0,1,.432-.388.427.427,0,0,1,.482.367,2.086,2.086,0,0,1,.024.412q0,6.988,0,13.976a.822.822,0,0,0,.2.6,1.627,1.627,0,0,1,.4,1.113c0,.944,0,1.889,0,2.833,0,.178-.038.357-.063.58h9.161c.937,0,1.317-.377,1.317-1.308q0-6.59,0-13.18a2.747,2.747,0,0,1,.015-.381.433.433,0,0,1,.457-.4.438.438,0,0,1,.465.394,1.635,1.635,0,0,1,.017.285q0,6.686,0,13.371a2.018,2.018,0,0,1-1.687,2.143,8.791,8.791,0,0,1-1.211.009c0,.311,0,.572,0,.833a1.307,1.307,0,1,1-2.613.008c0-.254,0-.509,0-.79H20.766c0,.255,0,.507,0,.758a1.3,1.3,0,0,1-1.311,1.377,1.313,1.313,0,0,1-1.308-1.386c0-.157,0-.313,0-.484h-.318a5.474,5.474,0,0,1-.3.959,1.766,1.766,0,0,1-1.671.965H4.3a1.84,1.84,0,0,1-2.007-1.775c-.005-.041-.012-.082-.022-.153-.189-.01-.375-.017-.562-.031A1.76,1.76,0,0,1,.033,28.987c-.044-1.027-.045-2.059,0-3.086a1.786,1.786,0,0,1,1.808-1.7c.136,0,.272,0,.433,0,.006-.137.013-.249.017-.362.012-.374.186-.591.479-.593s.474.216.475.587q0,2.022,0,4.043c0,.9,0,1.8,0,2.706,0,.74.331,1.065,1.071,1.065H15.745c.725,0,1.053-.323,1.053-1.043q0-5.189,0-10.379V20l-1.513.173V20.6a1.182,1.182,0,0,1,.79,1.515.867.867,0,0,1-.86.788c-.827.022-1.656.025-2.483,0a.851.851,0,0,1-.849-.924,2.374,2.374,0,0,1,.079-.781.785.785,0,0,1,.414-.445c.339-.113.336-.318.281-.6H7.392v.46a1.223,1.223,0,0,1,.747,1.637A.852.852,0,0,1,7.3,22.9c-.817.018-1.635.022-2.451,0a.849.849,0,0,1-.868-.9,2.9,2.9,0,0,1,.1-.871.671.671,0,0,1,.392-.384c.358-.1.313-.327.278-.565L3.244,20c0,.424,0,.887,0,1.349,0,.395-.184.623-.482.615s-.47-.23-.47-.6c0-1.953-.012-3.905,0-5.858a1.823,1.823,0,0,1,1.912-1.868c1.093,0,2.186,0,3.279,0H7.87c0-.264,0-.5,0-.745a2.159,2.159,0,1,1,4.318-.067c.011.254,0,.509,0,.812h3.067v-.356c0-1.273,0-2.547,0-3.82A2.025,2.025,0,0,1,17.376,7.33c.891,0,1.782,0,2.723,0V6.6c0-.541,0-1.082,0-1.624a.428.428,0,0,0-.184-.357,1.624,1.624,0,0,1-.556-.734A3.45,3.45,0,0,1,19.714,1.3,2.77,2.77,0,0,1,21.427.072c.069-.018.135-.047.2-.071ZM7.377,19.142h5.287V14.608H7.377ZM25.6,7.315c0-.828.006-1.623-.008-2.417a.4.4,0,0,0-.172-.259,1.279,1.279,0,0,1-.608-.958c-.021-.231-.01-.466-.012-.7,0-.377-.036-.411-.425-.412-.562,0-1.123,0-1.685,0-.816,0-.82,0-.826.83A1.359,1.359,0,0,1,21.2,4.654c-.062.038-.141.117-.142.178-.009.823-.006,1.646-.006,2.482ZM15.283,19.168c.247,0,.459.009.67,0a.84.84,0,0,0,.837-.83c.014-.974.012-1.949,0-2.924a.812.812,0,0,0-.688-.8,5.582,5.582,0,0,0-.818-.008Zm-10.537,0V14.586c-.217,0-.407,0-.6,0a.849.849,0,0,0-.893.847q-.037,1.447,0,2.895a.846.846,0,0,0,.9.84c.189.005.379,0,.591,0M23.351.957c-.435,0-.87-.006-1.3,0A1.776,1.776,0,0,0,20.279,2.48a7.424,7.424,0,0,0-.038.983c0,.219.092.388.323.393.251.005.343-.173.345-.4s0-.446,0-.668a1.122,1.122,0,0,1,1.137-1.163c.848-.021,1.7-.019,2.545,0A1.145,1.145,0,0,1,25.756,2.8c.007.233,0,.467,0,.7a.326.326,0,1,0,.65.007c0-.255,0-.509,0-.764A1.8,1.8,0,0,0,24.624.959c-.424-.009-.849,0-1.273,0m-5.58,24.236v4.464c.823.177,1.312-.2,1.314-1s-.031-1.593.009-2.387a.988.988,0,0,0-1.323-1.076m-15.5-.017C1.309,25.1.965,25.408.964,26.331c0,.763,0,1.525,0,2.288,0,.835.469,1.21,1.307,1.038ZM6.388,14.6H5.749v6.021h.639Zm4.86-.987a8.9,8.9,0,0,0-.056-1.02,1.194,1.194,0,0,0-2.335-.017,6.642,6.642,0,0,0-.01,1.036Zm3.043.989h-.633v6.015h.633Zm-1.449,7.325h2.292l-.023-.317H12.842Zm-5.613-.319h-2.3l.026.326H7.211l.018-.326m11.9,8.792a6.526,6.526,0,0,0,.017.944c.014.1.224.227.346.229a.4.4,0,0,0,.291-.258A6.972,6.972,0,0,0,19.8,30.4Zm7.726,0a5.933,5.933,0,0,0,.015.89.421.421,0,0,0,.306.276.46.46,0,0,0,.353-.262,5.451,5.451,0,0,0,.017-.9Z" transform="translate(0 -0.001)" fill="#ea685c"/>
    <path id="Trazado_21230" data-name="Trazado 21230" d="M62.889,283.6q1.909,0,3.818,0a1.157,1.157,0,0,1,1.286,1.272q0,1.639,0,3.277a1.157,1.157,0,0,1-1.246,1.252q-3.866,0-7.731,0a1.143,1.143,0,0,1-1.236-1.228q-.013-1.67,0-3.341a1.141,1.141,0,0,1,1.26-1.232q1.925,0,3.85,0m-.022.955c-1.251,0-2.5.008-3.752-.006-.3,0-.389.1-.386.388q.015,1.574,0,3.148c0,.275.1.368.376.367q3.784-.011,7.569,0c.278,0,.372-.1.369-.374-.01-1.049-.013-2.1,0-3.148,0-.3-.108-.382-.393-.38-1.261.011-2.523,0-3.784,0" transform="translate(-52.858 -259.471)" fill="#ea685c"/>
    <path id="Trazado_21231" data-name="Trazado 21231" d="M252.388,121.047q0,4.057,0,8.115c0,.117.037.262-.018.344a.949.949,0,0,1-.4.383.383.383,0,0,1-.493-.289,1.339,1.339,0,0,1-.045-.407q0-8.147,0-16.293a1.45,1.45,0,0,1,.025-.347.468.468,0,0,1,.922.063,2.868,2.868,0,0,1,.007.318q0,4.057,0,8.115" transform="translate(-230.044 -102.645)" fill="#ea685c"/>
    <path id="Trazado_21232" data-name="Trazado 21232" d="M285.7,121.015q0-4.058,0-8.115a1.421,1.421,0,0,1,.012-.317.448.448,0,0,1,.5-.391.444.444,0,0,1,.438.423,1.966,1.966,0,0,1,.006.286q0,8.147,0,16.294a1.954,1.954,0,0,1-.006.286.473.473,0,0,1-.937.03,1.428,1.428,0,0,1-.012-.317q0-4.089,0-8.179" transform="translate(-261.391 -102.647)" fill="#ea685c"/>
    <path id="Trazado_21233" data-name="Trazado 21233" d="M319.925,121.033q0-4.058,0-8.115a2.6,2.6,0,0,1,.006-.318.469.469,0,0,1,.916-.084,1.354,1.354,0,0,1,.031.377q0,8.147,0,16.294a1.3,1.3,0,0,1-.046.406.384.384,0,0,1-.5.284,1,1,0,0,1-.4-.386c-.051-.072-.015-.206-.015-.312q0-4.073,0-8.147" transform="translate(-292.698 -102.636)" fill="#ea685c"/>
  </g>
</svg>
