<svg id="Grupo_19208" data-name="Grupo 19208" xmlns="http://www.w3.org/2000/svg" xmlns:xlink="http://www.w3.org/1999/xlink" width="98" height="98" viewBox="0 0 98 98">
  <defs>
    <clipPath id="clip-path">
      <rect id="Rectángulo_18290" data-name="Rectángulo 18290" width="98" height="98" fill="none"/>
    </clipPath>
  </defs>
  <g id="Grupo_19207" data-name="Grupo 19207" clip-path="url(#clip-path)">
    <path id="Trazado_20996" data-name="Trazado 20996" d="M49,2.765A46.235,46.235,0,1,1,2.765,49,46.235,46.235,0,0,1,49,2.765M49,0A49,49,0,1,0,98,49,49.055,49.055,0,0,0,49,0" fill="#fff"/>
    <path id="Trazado_20997" data-name="Trazado 20997" d="M49.752,26.805A10.649,10.649,0,1,0,60.4,37.454,10.647,10.647,0,0,0,49.752,26.805m0,17.029a6.381,6.381,0,1,1,6.378-6.38,6.379,6.379,0,0,1-6.378,6.38" fill="#fff"/>
    <path id="Trazado_20998" data-name="Trazado 20998" d="M49.752,12.912A24.543,24.543,0,1,0,74.293,37.454a2.08,2.08,0,1,0-4.16,0A20.382,20.382,0,1,1,49.752,17.069a2.079,2.079,0,1,0,0-4.157" fill="#fff"/>
    <path id="Trazado_20999" data-name="Trazado 20999" d="M49.752,19.8a17.651,17.651,0,1,0,0,35.3v0a2.133,2.133,0,1,0,0-4.265A13.384,13.384,0,1,1,63.131,37.454h.005a2.135,2.135,0,0,0,4.27,0h0A17.65,17.65,0,0,0,49.752,19.8" fill="#fff"/>
    <path id="Trazado_21000" data-name="Trazado 21000" d="M20.242,75.636a3.563,3.563,0,1,1,0-7.115,4.223,4.223,0,0,1,2.153.6l-.489,1.353a3.446,3.446,0,0,0-1.645-.46,2.068,2.068,0,1,0,0,4.135,3.416,3.416,0,0,0,1.72-.507L22.46,75a4.2,4.2,0,0,1-2.218.639" fill="#fff"/>
    <path id="Trazado_21001" data-name="Trazado 21001" d="M27.358,75.636a3.369,3.369,0,0,1-3.5-3.553,3.425,3.425,0,0,1,3.562-3.562,3.378,3.378,0,0,1,3.5,3.562,3.428,3.428,0,0,1-3.562,3.553m.028-5.686a2.16,2.16,0,1,0,1.823,2.133,1.908,1.908,0,0,0-1.823-2.133" fill="#fff"/>
    <path id="Trazado_21002" data-name="Trazado 21002" d="M38.711,75.655l-4.154-3.732v3.6h-1.6V68.54l.216-.037,4.1,3.7V68.634h1.6v6.992Z" fill="#fff"/>
    <path id="Trazado_21003" data-name="Trazado 21003" d="M42.8,70.1v1.522h2.369v1.4H42.8v2.5H41.2v-6.89h4.361V70.1Z" fill="#fff"/>
    <rect id="Rectángulo_18288" data-name="Rectángulo 18288" width="1.598" height="6.889" transform="translate(47.38 68.634)" fill="#fff"/>
    <path id="Trazado_21004" data-name="Trazado 21004" d="M55.561,75.523l-.517-1.25H52.667l-.518,1.25H50.524l3.242-6.946h.216l3.243,6.946ZM53.86,71.4l-.686,1.654h1.363Z" fill="#fff"/>
    <path id="Trazado_21005" data-name="Trazado 21005" d="M64.508,75.655l-4.154-3.732v3.6h-1.6V68.54l.216-.037,4.1,3.7V68.634h1.6v6.992Z" fill="#fff"/>
    <path id="Trazado_21006" data-name="Trazado 21006" d="M68.948,74.066h3.3v1.457H66.4l-.047-.169L69.765,70.1H66.6V68.634h5.715l.047.178Z" fill="#fff"/>
    <path id="Trazado_21007" data-name="Trazado 21007" d="M78.592,75.523l-.517-1.25H75.7l-.518,1.25H73.555L76.8,68.577h.216l3.243,6.946Zm-1.7-4.126-.686,1.654h1.363Z" fill="#fff"/>
    <path id="Trazado_21008" data-name="Trazado 21008" d="M30.006,77.748a3.7,3.7,0,0,0-3.676,3.8,3.629,3.629,0,0,0,3.638,3.779,3.79,3.79,0,0,0,.038-7.576m-.019.969a2.834,2.834,0,1,1-2.593,2.828,2.629,2.629,0,0,1,2.593-2.828" fill="#fff"/>
    <path id="Trazado_21009" data-name="Trazado 21009" d="M41.426,77.851v5.215L37.22,77.718l-.465.107v7.4h1.008V79.951l4.24,5.4.44-.085V77.851Z" fill="#fff"/>
    <path id="Trazado_21010" data-name="Trazado 21010" d="M46.891,84.26V77.85H45.874v7.38h4.382v-.97Z" fill="#fff"/>
    <rect id="Rectángulo_18289" data-name="Rectángulo 18289" width="1.017" height="7.379" transform="translate(52.979 77.851)" fill="#fff"/>
    <path id="Trazado_21011" data-name="Trazado 21011" d="M62.1,77.851v5.215L57.89,77.718l-.465.107v7.4h1.008V79.951l4.24,5.4.44-.085V77.851Z" fill="#fff"/>
    <path id="Trazado_21012" data-name="Trazado 21012" d="M70.926,78.811v-.96H66.544V85.23h4.382v-.97H67.56V81.968H70.6v-.96H67.56v-2.2Z" fill="#fff"/>
  </g>
</svg>
