<svg id="Grupo_19397" data-name="Grupo 19397" xmlns="http://www.w3.org/2000/svg" xmlns:xlink="http://www.w3.org/1999/xlink" width="30.333" height="27.962" viewBox="0 0 30.333 27.962">
  <defs>
    <clipPath id="clip-path">
      <rect id="Rectángulo_18384" data-name="Rectángulo 18384" width="30.333" height="27.962" fill="none"/>
    </clipPath>
  </defs>
  <g id="Grupo_19363" data-name="Grupo 19363" clip-path="url(#clip-path)">
    <path id="Trazado_21234" data-name="Trazado 21234" d="M30.333,26.388a4.939,4.939,0,0,1-.36.767,1.877,1.877,0,0,1-1.659.8q-5.078-.005-10.156,0c-.465,0-.718-.192-.742-.546a.554.554,0,0,1,.451-.6,2.309,2.309,0,0,1,.441-.034q4.93,0,9.86,0c.77,0,.98-.213.98-.987V6.872H1.21c0,.1-.013.2-.013.306q0,9.343,0,18.686c0,.663.242.9.917.9q5.344,0,10.689,0a2.186,2.186,0,0,1,.441.036.576.576,0,0,1,.445.557.583.583,0,0,1-.471.566,2.246,2.246,0,0,1-.383.024c-3.563,0-7.126-.02-10.689.011A2.016,2.016,0,0,1,0,25.808C.022,17.892.011,9.975.012,2.059A1.88,1.88,0,0,1,1.44.069,2.733,2.733,0,0,1,2.114,0Q15.171,0,28.229,0c1.123,0,1.615.371,2.1,1.569ZM29.148,5.657c0-1.217,0-2.4,0-3.584,0-.627-.251-.882-.875-.886-.543,0-1.086,0-1.628,0H2.248c-.863,0-1.052.192-1.052,1.066V5.657Z" transform="translate(0 0)" fill="#ea685c"/>
    <path id="Trazado_21235" data-name="Trazado 21235" d="M88.1,317.474q-4.2,0-8.4,0a2.482,2.482,0,0,1-.412-.026.573.573,0,0,1,.01-1.132,2.35,2.35,0,0,1,.383-.025q8.462,0,16.925,0a2.262,2.262,0,0,1,.382.026.573.573,0,0,1-.01,1.133,2.593,2.593,0,0,1-.412.025H88.1" transform="translate(-72.964 -292.833)" fill="#ea685c"/>
    <path id="Trazado_21236" data-name="Trazado 21236" d="M202.789,361.132a.58.58,0,1,1-.018,1.16.58.58,0,1,1,.018-1.16" transform="translate(-187.199 -334.351)" fill="#ea685c"/>
    <path id="Trazado_21237" data-name="Trazado 21237" d="M199.306,39.4H193.89a2.929,2.929,0,0,1-.325-.011.578.578,0,0,1-.546-.558.569.569,0,0,1,.506-.59,1.875,1.875,0,0,1,.323-.024q5.461,0,10.922,0a1.881,1.881,0,0,1,.41.038.557.557,0,0,1,.43.564.564.564,0,0,1-.445.554,2.17,2.17,0,0,1-.412.026q-2.723,0-5.446,0" transform="translate(-178.704 -35.381)" fill="#ea685c"/>
    <path id="Trazado_21238" data-name="Trazado 21238" d="M46.956,38.964a.583.583,0,0,1-.58.581.582.582,0,1,1,.58-.581" transform="translate(-42.382 -35.535)" fill="#ea685c"/>
    <path id="Trazado_21239" data-name="Trazado 21239" d="M85.459,38.945a.582.582,0,0,1,.574-.587.583.583,0,1,1,.005,1.166.576.576,0,0,1-.579-.579" transform="translate(-79.121 -35.513)" fill="#ea685c"/>
    <path id="Trazado_21240" data-name="Trazado 21240" d="M125.469,38.379a.582.582,0,0,1,.014,1.165.583.583,0,1,1-.014-1.165" transform="translate(-115.615 -35.533)" fill="#ea685c"/>
  </g>
</svg>
