<svg xmlns="http://www.w3.org/2000/svg" width="26.65" height="30.136" viewBox="0 0 26.65 30.136">
  <g id="Grupo_19392" data-name="Grupo 19392" transform="translate(0 0.001)">
    <path id="Trazado_21208" data-name="Trazado 21208" d="M157.429,454.191l-.66,1.024a1.752,1.752,0,0,0,.309.112,1.5,1.5,0,0,1,1.1.749c.028.045.063.086.1.129.357.47.349.449.908.249a1.592,1.592,0,0,1,.744-.071c1.384.206,2.762.444,4.145.66a1.552,1.552,0,0,1,1.26.874.732.732,0,0,0,.636.445,9.077,9.077,0,0,1,1.1.206,2.009,2.009,0,0,1,1.5,1.626.947.947,0,0,1-.487,1,1.479,1.479,0,0,1-.291.132c-.476.149-.841.34-.847.959a1.369,1.369,0,0,1-.68,1.005,12.25,12.25,0,0,0-1.028.765,1.854,1.854,0,0,0-.588.772,3.081,3.081,0,0,1-1.686,2.023.762.762,0,0,0-.449,1,2.323,2.323,0,0,1-.438,2.115,4.178,4.178,0,0,0-.322.516,1,1,0,0,1-1.079.582,1.261,1.261,0,0,1-1.123-1.039c-.056-.562-.021-1.132-.051-1.7a1.015,1.015,0,0,0-.16-.489,1.036,1.036,0,0,1-.005-1.2.755.755,0,0,1,.1-.125c.319-.29.437-.571.1-.96a.846.846,0,0,1-.04-.888c.079-.2.162-.393.24-.58-.023-.033-.033-.062-.047-.064a1.717,1.717,0,0,1-1.215-.991c-.219-.367-.471-.713-.7-1.071a1.907,1.907,0,0,1,.06-2.081c.136-.187.276-.372.461-.622-.541-.088-1.007-.188-1.478-.233a2.228,2.228,0,0,1-1.487-.723,16.1,16.1,0,0,0-1.227-1.176,1.4,1.4,0,0,0-.613-.3c-.642-.13-.885-.345-1.006-.983-.042-.22-.1-.44-.119-.662a3.3,3.3,0,0,0-1-2.13,1.565,1.565,0,0,1-.439-1.666c.148-.545.21-1.112.334-1.664a1.548,1.548,0,0,0-.251-1.033c-.019-.04-.177-.061-.235-.027a1.533,1.533,0,0,1-1.557.073.325.325,0,0,0-.272.059,2.478,2.478,0,0,0-.423.392,3.059,3.059,0,0,1-1.855,1.043c-.355.068-.7.2-1.05.286a1.219,1.219,0,0,1-1.451-.71,1.172,1.172,0,0,1,.42-1.575,1.263,1.263,0,0,0,.823-1.353,1.192,1.192,0,0,1,.65-1.078q1.056-.668,2.124-1.317a1.635,1.635,0,0,1,1.206-.195c.335.068.67.135,1,.21.179.04.292.016.37-.182a2.043,2.043,0,0,1,1.955-1.351c.437-.024.875-.065,1.308-.127a3.624,3.624,0,0,1,1.763.2c.078.028.161.044.257.07.039-.1.069-.192.106-.278a1.337,1.337,0,0,1,1.184-.9c.875-.056,1.751-.089,2.627-.108a1.2,1.2,0,0,1,1.157.811,1.317,1.317,0,0,1-.453,1.493c-.54.419-1.112.8-1.649,1.22a1.042,1.042,0,0,0-.333.512.542.542,0,0,0,.3.644c.31.166.622.332.939.485.242.116.392,0,.364-.263-.018-.17-.042-.34-.044-.51a.827.827,0,0,1,.428-.777,1.684,1.684,0,0,1,1.768-.048,13.842,13.842,0,0,1,1.542,1.035,2.864,2.864,0,0,1,.715.954,10.63,10.63,0,0,1,.5,1.45,1.465,1.465,0,0,1-.793,1.822,4.685,4.685,0,0,1-2.52.609.627.627,0,0,0-.389.192c-.117.1-.181.265-.29.381a2.744,2.744,0,0,0-.789,2.273.912.912,0,0,1-.537.977,1.253,1.253,0,0,1-1.285-.051c-.386-.263-.759-.545-1.171-.843m3.714-7.982c.014.151.019.3.044.445a.979.979,0,0,1-.382,1.021,1.075,1.075,0,0,1-1.227.151c-.321-.17-.649-.326-.968-.5a1.558,1.558,0,0,1-.186-2.664c.514-.384,1.04-.751,1.554-1.134a.879.879,0,0,0,.272-.3.328.328,0,0,0-.322-.5c-.833.023-1.668.048-2.5.116a.648.648,0,0,0-.436.347c-.325.758-.707.963-1.481.708a2.945,2.945,0,0,0-1.384-.165,11.852,11.852,0,0,1-1.34.128,1.268,1.268,0,0,0-1.246.875.99.99,0,0,1-1.259.654,8.808,8.808,0,0,0-1-.2,1.286,1.286,0,0,0-.7.113c-.679.383-1.343.8-1.986,1.235a.725.725,0,0,0-.3.547,1.568,1.568,0,0,1-1.07,1.79.61.61,0,0,0-.055.034.356.356,0,0,0-.2.5.374.374,0,0,0,.5.221,4.511,4.511,0,0,0,2.893-1.529.424.424,0,0,1,.071-.065.887.887,0,0,1,.984-.183,1.107,1.107,0,0,0,1.08-.048.886.886,0,0,1,1.159.231,2.322,2.322,0,0,1,.5,1.8c-.105.534-.17,1.08-.321,1.6a1.039,1.039,0,0,0,.305,1.146,3.642,3.642,0,0,1,1.079,2.3,4.206,4.206,0,0,0,.151.785.4.4,0,0,0,.254.247,1.978,1.978,0,0,1,1.148.586c.426.421.871.823,1.289,1.251a1.227,1.227,0,0,0,.76.361c.518.071,1.039.138,1.549.25a.958.958,0,0,1,.6,1.485c-.12.189-.267.361-.4.545a1.017,1.017,0,0,0-.022,1.112c.269.411.552.814.812,1.231a.8.8,0,0,0,.538.4.955.955,0,0,1,.676,1.276c-.058.172-.151.332-.2.506a.474.474,0,0,0,.016.322c.454.824.444.981-.151,1.71-.034.041-.091.079-.1.124a.719.719,0,0,0,0,.3,4.54,4.54,0,0,1,.251.8,12.259,12.259,0,0,1,.008,1.443.483.483,0,0,0,.485.561,8.082,8.082,0,0,1,.478-.759,1.584,1.584,0,0,0,.279-1.392c-.037-.177-.042-.361-.072-.54a1.013,1.013,0,0,1,.464-1.079c.273-.187.537-.394.825-.553a1.628,1.628,0,0,0,.822-1.046,2.819,2.819,0,0,1,1.244-1.652c.269-.173.517-.38.779-.564a.9.9,0,0,0,.416-.785,1.046,1.046,0,0,1,.76-1.066c.276-.1.541-.234.814-.353a1.191,1.191,0,0,0-1.04-.993c-.3-.043-.586-.137-.882-.159a1.34,1.34,0,0,1-1.208-.86.748.748,0,0,0-.621-.442c-1.318-.211-2.637-.42-3.952-.65a1.244,1.244,0,0,0-.824.15.894.894,0,0,1-.92.022,2.194,2.194,0,0,1-.581-.578,1.705,1.705,0,0,0-1.045-.759.939.939,0,0,1-.559-1.454c.157-.267.331-.524.5-.784a.988.988,0,0,1,1.581-.286c.3.219.6.452.908.66.272.183.476.073.485-.244.007-.225.019-.45.008-.674a1.967,1.967,0,0,1,.441-1.339c.288-.372.562-.755.83-1.141a1.022,1.022,0,0,1,.977-.5,4.015,4.015,0,0,0,2.157-.478.608.608,0,0,0,.374-.856,11.375,11.375,0,0,0-.439-1.27,1.963,1.963,0,0,0-.54-.685c-.374-.3-.806-.525-1.193-.808a.911.911,0,0,0-1.008-.052" transform="translate(-144.029 -440.941)" fill="#ea685c"/>
    <path id="Trazado_21209" data-name="Trazado 21209" d="M374.423,440.165a1.494,1.494,0,0,1-1.21-.616,11.931,11.931,0,0,1-2.142-3.618,1.458,1.458,0,0,0-.5-.586c-.256-.207-.56-.353-.833-.54a1.278,1.278,0,0,1-.586-1.082c0-.192,0-.385,0-.577a1.563,1.563,0,0,1,2.219-1.488c.643.26,1.273.557,1.93.775a11.937,11.937,0,0,0,1.7.4,1.541,1.541,0,0,1,1.249,1.047,2.518,2.518,0,0,1-.26,2.631c-.075.1-.113.233-.19.333a1.369,1.369,0,0,0-.2,1.357,2.806,2.806,0,0,1,.1.469,1.228,1.228,0,0,1-1.284,1.492m-4.414-6.83a.826.826,0,0,0,.548.93c.143.071.266.18.409.251a1.891,1.891,0,0,1,1,1.19,10.3,10.3,0,0,0,1.953,3.277c.058.075.129.178.207.191a1.093,1.093,0,0,0,.569,0c.086-.036.117-.295.1-.447a5.435,5.435,0,0,0-.153-.751,1.563,1.563,0,0,1,.175-1.2c.218-.366.408-.75.626-1.116a1.057,1.057,0,0,0,.1-1.006,3.151,3.151,0,0,1-.144-.457.547.547,0,0,0-.532-.464,7.768,7.768,0,0,1-2.543-.708c-.418-.188-.848-.348-1.273-.52a.626.626,0,0,0-.888.232,2,2,0,0,0-.158.6" transform="translate(-349.859 -431.523)" fill="#ea685c"/>
  </g>
</svg>
