<svg xmlns="http://www.w3.org/2000/svg" xmlns:xlink="http://www.w3.org/1999/xlink" width="76.857" height="94.488" viewBox="0 0 76.857 94.488">
  <defs>
    <clipPath id="clip-path">
      <rect id="Rect치ngulo_18322" data-name="Rect치ngulo 18322" width="76.857" height="94.394" fill="none"/>
    </clipPath>
    <clipPath id="clip-path-2">
      <rect id="Rect치ngulo_18323" data-name="Rect치ngulo 18323" width="76.857" height="62.022" fill="none"/>
    </clipPath>
  </defs>
  <g id="Grupo_19274" data-name="Grupo 19274" transform="translate(0 0.073)">
    <g id="Grupo_19270" data-name="Grupo 19270" transform="translate(0 0.021)">
      <g id="Grupo_19269" data-name="Grupo 19269" clip-path="url(#clip-path)">
        <path id="Trazado_21089" data-name="Trazado 21089" d="M299.251,3.093A2.336,2.336,0,0,1,296.919.757.759.759,0,0,0,296.159,0h-.665a.759.759,0,0,0-.76.757A2.336,2.336,0,0,1,292.4,3.093a.76.76,0,0,0-.76.76v.665a.762.762,0,0,0,.76.76,2.333,2.333,0,0,1,2.332,2.332.762.762,0,0,0,.76.76h.665a.762.762,0,0,0,.761-.76,2.333,2.333,0,0,1,2.332-2.332.762.762,0,0,0,.76-.76V3.853a.76.76,0,0,0-.76-.76m-3.425,2.754a3.871,3.871,0,0,0-1.662-1.662,3.9,3.9,0,0,0,1.662-1.662,3.888,3.888,0,0,0,1.662,1.662,3.871,3.871,0,0,0-1.662,1.662" transform="translate(-254.775 0)" fill="#e9685c" fill-rule="evenodd"/>
        <path id="Trazado_21090" data-name="Trazado 21090" d="M456.136,37.055a1.6,1.6,0,0,1,1.6-1.6.523.523,0,0,0,.522-.522v-.457a.523.523,0,0,0-.522-.522,1.6,1.6,0,0,1-1.6-1.6.522.522,0,0,0-.522-.522h-.457a.52.52,0,0,0-.522.522,1.605,1.605,0,0,1-1.6,1.6.522.522,0,0,0-.522.522v.457a.522.522,0,0,0,.522.522,1.6,1.6,0,0,1,1.6,1.6.522.522,0,0,0,.522.522h.457a.523.523,0,0,0,.522-.522M454.244,34.7a2.659,2.659,0,0,0,1.141-1.141,2.659,2.659,0,0,0,1.141,1.141,2.665,2.665,0,0,0-1.141,1.139,2.666,2.666,0,0,0-1.141-1.139" transform="translate(-395.308 -27.804)" fill="#e9685c" fill-rule="evenodd"/>
        <path id="Trazado_21091" data-name="Trazado 21091" d="M125.136,35.055a1.6,1.6,0,0,1,1.6-1.6.523.523,0,0,0,.522-.522v-.457a.523.523,0,0,0-.522-.522,1.6,1.6,0,0,1-1.6-1.6.522.522,0,0,0-.522-.522h-.457a.52.52,0,0,0-.522.522,1.605,1.605,0,0,1-1.6,1.6.522.522,0,0,0-.522.522v.457a.522.522,0,0,0,.522.522,1.6,1.6,0,0,1,1.6,1.6.522.522,0,0,0,.522.522h.457a.523.523,0,0,0,.522-.522M123.244,32.7a2.659,2.659,0,0,0,1.141-1.141,2.659,2.659,0,0,0,1.141,1.141,2.665,2.665,0,0,0-1.141,1.139,2.666,2.666,0,0,0-1.141-1.139" transform="translate(-106.15 -26.057)" fill="#e9685c" fill-rule="evenodd"/>
        <path id="Trazado_21092" data-name="Trazado 21092" d="M74.034,82.046a1.052,1.052,0,0,1-1.394.611,3.73,3.73,0,0,1-2.528-3.691c0-.377,0-.757,0-1.136.006-.709.009-1.445-.039-2.166-.092-1.311-.481-1.748-1.807-2.026-.522-.11-.73-.365-.7-.852a.873.873,0,0,1,.789-.926,2.481,2.481,0,0,1,.389-.03,2.565,2.565,0,0,1,1.857.813,4.151,4.151,0,0,1,1.323,3.189c-.006.264,0,.531,0,.8,0,.071,0,.142,0,.211h-.012v.148c0,.2,0,.409-.006.611a12.169,12.169,0,0,0,.027,1.394,2.082,2.082,0,0,0,1.4,1.94,1.184,1.184,0,0,1,.727.519.763.763,0,0,1-.033.593" transform="translate(-59.025 -62.751)" fill="#e9685c"/>
        <path id="Trazado_21093" data-name="Trazado 21093" d="M534.959,68.349a1,1,0,0,1-.665.35,1.52,1.52,0,0,0-1.377,1.566c.006,1.3.116,2.569.249,3.976a3.73,3.73,0,0,1-2.006,3.78,1.355,1.355,0,0,1-.955.1,1.384,1.384,0,0,1-.656-.846.973.973,0,0,1,.442-.709,2.353,2.353,0,0,0,1.368-2.537c-.036-.57-.107-1.142-.175-1.7-.062-.519-.13-1.056-.169-1.581a3.746,3.746,0,0,1,2.377-3.765,4.368,4.368,0,0,1,.433-.1l.125-.024a1.016,1.016,0,0,1,1.1.887.763.763,0,0,1-.092.593" transform="translate(-462.607 -58.415)" fill="#e9685c"/>
        <path id="Trazado_21094" data-name="Trazado 21094" d="M207.08,292.174v-.2c.017,0,.019-.019.024-.031a.454.454,0,0,1,.409-.31l1.226-.112c.389-.035.778-.071,1.168-.1a.1.1,0,0,0,.1-.074c.091-.222.187-.441.282-.662q.332-.777.665-1.553a.452.452,0,0,1,.555-.27.481.481,0,0,1,.307.3c.31.729.623,1.456.932,2.185a.1.1,0,0,0,.1.074q.5.043,1,.089c.475.043.951.086,1.426.133a.432.432,0,0,1,.357.258c.016.031.016.07.044.1v.184a.773.773,0,0,1-.265.354c-.561.488-1.117.98-1.679,1.467a.165.165,0,0,0-.063.19c.178.766.351,1.534.525,2.3a.487.487,0,0,1,0,.249.455.455,0,0,1-.689.253q-1.022-.609-2.04-1.222a.131.131,0,0,0-.157,0q-1.015.611-2.033,1.217a.444.444,0,0,1-.526-.009.452.452,0,0,1-.171-.506c.176-.77.35-1.54.527-2.309a.13.13,0,0,0-.05-.149c-.569-.5-1.134-.995-1.7-1.49a.756.756,0,0,1-.259-.349" transform="translate(-180.903 -252.324)" fill="#cd685d"/>
      </g>
    </g>
    <g id="Grupo_19272" data-name="Grupo 19272" transform="translate(0 -0.073)">
      <g id="Grupo_19271" data-name="Grupo 19271" clip-path="url(#clip-path-2)">
        <path id="Trazado_21095" data-name="Trazado 21095" d="M337.338,89.227a9.953,9.953,0,1,0,9.941,9.966,9.964,9.964,0,0,0-9.941-9.966m-.023,17.327a7.374,7.374,0,1,1,7.384-7.366,7.381,7.381,0,0,1-7.384,7.366" transform="translate(-285.989 -79.142)" fill="#0a3642" fill-rule="evenodd"/>
        <path id="Trazado_21096" data-name="Trazado 21096" d="M163.766,72.26a9.954,9.954,0,1,0,9.941,9.966,9.963,9.963,0,0,0-9.941-9.966m-.022,17.329a7.375,7.375,0,1,1,7.384-7.366,7.383,7.383,0,0,1-7.384,7.366" transform="translate(-134.358 -64.32)" fill="#0a3642" fill-rule="evenodd"/>
        <path id="Trazado_21097" data-name="Trazado 21097" d="M99.824,255.514a1.29,1.29,0,0,1,0-2.58,7.382,7.382,0,0,0,7.383-7.365l.02-15.884a17.763,17.763,0,0,0-17.72-17.765l-3.647,0A17.763,17.763,0,0,0,68.1,229.635l-.02,15.884a7.382,7.382,0,0,0,7.366,7.384H75.8a1.29,1.29,0,0,1,0,2.58h-.361a9.966,9.966,0,0,1-9.942-9.966l.02-15.884a20.347,20.347,0,0,1,20.349-20.3l3.647,0a20.345,20.345,0,0,1,20.3,20.348l-.02,15.884a9.965,9.965,0,0,1-9.966,9.941" transform="translate(-57.217 -184.068)" fill="#0a3642" fill-rule="evenodd"/>
        <path id="Trazado_21098" data-name="Trazado 21098" d="M144.566,428.054a1.29,1.29,0,0,1-1.288-1.291l.056-43.487a1.29,1.29,0,1,1,2.579,0l-.056,43.487a1.29,1.29,0,0,1-1.291,1.288" transform="translate(-125.166 -334.895)" fill="#0a3642" fill-rule="evenodd"/>
        <path id="Trazado_21099" data-name="Trazado 21099" d="M311.737,427.9a1.29,1.29,0,0,1-1.288-1.291l.056-43.486a1.29,1.29,0,1,1,2.579,0l-.056,43.487a1.29,1.29,0,0,1-1.291,1.288" transform="translate(-271.205 -334.762)" fill="#0a3642" fill-rule="evenodd"/>
        <path id="Trazado_21100" data-name="Trazado 21100" d="M401.618,272.472a1.29,1.29,0,0,1,0-2.58,7.382,7.382,0,0,0,7.384-7.364l.02-15.884a17.763,17.763,0,0,0-17.72-17.766l-3.648,0a1.29,1.29,0,1,1,0-2.58l3.648,0a20.346,20.346,0,0,1,20.3,20.349l-.02,15.883a9.965,9.965,0,0,1-9.966,9.942" transform="translate(-337.528 -198.883)" fill="#0a3642" fill-rule="evenodd"/>
        <path id="Trazado_21101" data-name="Trazado 21101" d="M476.728,428.111a1.29,1.29,0,0,1-1.288-1.291l.056-43.486a1.29,1.29,0,1,1,2.579,0l-.056,43.487a1.29,1.29,0,0,1-1.291,1.288" transform="translate(-415.339 -334.946)" fill="#0a3642" fill-rule="evenodd"/>
        <path id="Trazado_21102" data-name="Trazado 21102" d="M396.468,518.762a1.29,1.29,0,0,1-1.288-1.292l.039-30.408a1.29,1.29,0,0,1,2.58,0l-.039,30.408a1.29,1.29,0,0,1-1.291,1.288" transform="translate(-345.225 -425.563)" fill="#0a3642" fill-rule="evenodd"/>
      </g>
    </g>
  </g>
</svg>
