<svg xmlns="http://www.w3.org/2000/svg" width="32.845" height="29.054" viewBox="0 0 32.845 29.054">
  <g id="Grupo_19390" data-name="Grupo 19390" transform="translate(0 0)">
    <path id="Trazado_21197" data-name="Trazado 21197" d="M122.7,3.431c-.169.2-.343.39-.646.272s-.321-.362-.318-.633c.006-.692,0-1.384,0-2.1h-.608c-.823,0-1.646,0-2.469-.007a2.192,2.192,0,0,0-1.576.6c-.951.892-1.9,1.784-2.842,2.689-.1.1-.216.329-.17.424a1.482,1.482,0,0,1-1.788,1.943,2.315,2.315,0,0,1-.972-.444,1.056,1.056,0,0,1-.185-1.582c.488-.668.492-.68-.3-.931-.721-.228-1.447-.445-2.18-.63a1.622,1.622,0,0,0-1.554.394,8.188,8.188,0,0,0-1.082,1.294c-.388.561-.7,1.171-1.069,1.748a4.009,4.009,0,0,1-1.8,1.585,2.953,2.953,0,0,0-1.321,1.513c-.108.2.027.328.2.335a1.327,1.327,0,0,0,.615-.1,3.634,3.634,0,0,0,.674-.481.528.528,0,0,1,.641-.123c.231.128.244.337.235.58-.025.66-.03,1.322-.025,1.983a2.737,2.737,0,0,0,.1.522l.127.074c.068-.108.144-.213.2-.326.291-.567.595-1.128.853-1.709a.528.528,0,0,0-.1-.478,1.048,1.048,0,0,1-.265-1.2c.219-.691.433-1.386.688-2.064A1.947,1.947,0,0,1,107.247,5.2a1.254,1.254,0,0,1,1.479,1.548A8.117,8.117,0,0,1,108.1,8a2.978,2.978,0,0,0-.306.728c-.072.383.158.546.518.394.314-.132.611-.306.925-.44a1.551,1.551,0,0,1,1.275-.051.754.754,0,0,1,.494.952,9.752,9.752,0,0,1-.365,1.291,2.482,2.482,0,0,1-2.841,1.736c-.014.195-.044.39-.04.585a1.836,1.836,0,0,1-1.646,2.146,25.9,25.9,0,0,1-3.378.259c-.464.019-.746-.332-.756-.827-.007-.34.04-.681.063-1.022.012-.169-.017-.3-.233-.29s-.3.1-.256.3a1.614,1.614,0,0,1-.867,1.792,2.9,2.9,0,0,0-.767.875,1.825,1.825,0,0,1-.933.833.488.488,0,0,1-.672-.247c-.108-.262.01-.479.3-.647A1,1,0,0,0,99.039,16a3.209,3.209,0,0,1,1.3-1.382.526.526,0,0,0,.29-.581c-.013-.084-.011-.171-.016-.256a1.014,1.014,0,0,1,.483-1.1,1.433,1.433,0,0,1,1.5.033.945.945,0,0,1,.416.857c0,.349-.034.7-.059,1.143,1.044-.11,2.066-.171,3.069-.339.628-.106.78-.443.8-1.087A3.315,3.315,0,0,1,107,12.171a.886.886,0,0,1,1.154-.515,1.174,1.174,0,0,0,1.216-.467,3.512,3.512,0,0,0,.68-1.748c-.231.073-.412.114-.579.187-.293.128-.569.3-.868.41a1.249,1.249,0,0,1-1.761-1.33,3.655,3.655,0,0,1,.381-1.1c.146-.318.379-.6.526-.913.057-.124.031-.407-.044-.444a.579.579,0,0,0-.512,0,1.753,1.753,0,0,0-.515.669c-.25.634-.449,1.289-.646,1.942a.444.444,0,0,0,.093.356,1.25,1.25,0,0,1,.3,1.189,5.8,5.8,0,0,1-1.17,2.326,1.873,1.873,0,0,1-.324.308.912.912,0,0,1-1.524-.421,8.731,8.731,0,0,1-.259-1.505,2.817,2.817,0,0,1,0-.412,6.072,6.072,0,0,1-.887.179,1.211,1.211,0,0,1-1.235-1.862A3.777,3.777,0,0,1,102.879,7.1,2.912,2.912,0,0,0,104.172,5.9c.377-.595.7-1.225,1.1-1.8A7.766,7.766,0,0,1,106.4,2.749a2.885,2.885,0,0,1,2.883-.58q1.231.35,2.438.782a1.093,1.093,0,0,1,.6,1.58,3.561,3.561,0,0,1-.385.588c-.138.174-.1.327.073.387a1.992,1.992,0,0,0,.793.145c.342-.032.471-.3.355-.637a1.217,1.217,0,0,1,.354-1.4c.981-.923,1.957-1.852,2.942-2.77A3.015,3.015,0,0,1,118.54.008c1.2-.008,2.395-.017,3.591.007.192,0,.381.177.571.272Z" transform="translate(-89.858 0)" fill="#ea685c"/>
    <path id="Trazado_21198" data-name="Trazado 21198" d="M338.587,75.016c-.341.35-.47.358-.917.123-.633-.333-1.273-.651-1.912-.972a3.754,3.754,0,0,0-.355-.136.814.814,0,0,0,.527.977,1.849,1.849,0,0,1,1.261,1.882c.036,1.218-.147,1.457-1.328,1.677-.168.031-.334.078-.5.1a.481.481,0,0,1-.553-.374.472.472,0,0,1,.362-.56c.268-.068.544-.112.818-.153.163-.025.251-.086.239-.266s0-.363-.008-.545a.867.867,0,0,0-.574-.839,1.872,1.872,0,0,1-1.233-2.051c.053-.713.45-1.022,1.124-.794.6.2,1.177.5,1.763.751.1.041.187.092.326.161v-.408q0-7.986,0-15.973c0-.479.25-.742.611-.623a1.431,1.431,0,0,1,.351.253Z" transform="translate(-305.742 -52.083)" fill="#ea685c"/>
    <path id="Trazado_21199" data-name="Trazado 21199" d="M25.914,193.909a6.7,6.7,0,0,0-.578.426c-.253.229-.477.491-.724.727-.486.463-.767.472-1.275.055-.383.535-.519.606-1.135.574-.1.559-.227,1.12-.3,1.688a2.046,2.046,0,0,1-.55,1.132c-.18.2-.38.376-.565.569a1.685,1.685,0,0,1-1.636.474c.149.3.262.533.378.763a.79.79,0,0,1-.548,1.21c-.29.068-.584.122-.879.17a.767.767,0,0,1-.978-.674,1.023,1.023,0,0,0-.378-.667,1.417,1.417,0,0,1-.533-1.455.575.575,0,0,0-.343-.7c-.784-.432-1.549-.9-2.345-1.365a.379.379,0,0,0,0,.108c.284.677.585,1.347.852,2.031a2.359,2.359,0,0,0,.867,1.153,1.163,1.163,0,0,1,.553,1.35.753.753,0,0,1-.664.561.679.679,0,0,0-.414.272,2.214,2.214,0,0,1-1.771,1.117,2.047,2.047,0,0,1-1.733-1.343c-.072-.371.13-.583.486-.684a3.821,3.821,0,0,0,.858-.453c.04-.024.054-.139.038-.2a1.55,1.55,0,0,0-.177-.508,12.011,12.011,0,0,1-1.263-2.547c-.329-.821-.332-.769-1.192-.6a10.8,10.8,0,0,1-1.905.13c-.279,0-.451.005-.5.351a.827.827,0,0,1-.729.711.583.583,0,0,1-.094.021c-1,.011-1.441.646-1.706,1.5a1.192,1.192,0,0,1-1.524.9c-.336-.062-.678-.107-1-.2a6.649,6.649,0,0,1-1.261-.446,2.1,2.1,0,0,1-1.146-2.578c.2-.808.423-1.611.656-2.41a1.143,1.143,0,0,1,1.594-.773c.546.215,1.085.449,1.631.665a2.519,2.519,0,0,0,.552.158c.552.081.829-.168.762-.721a7.284,7.284,0,0,0-.251-1.056,3.194,3.194,0,0,1-.183-1.51,1.208,1.208,0,0,1,1.214-1.1,3.693,3.693,0,0,1,.861.045.434.434,0,0,1,.389.5.442.442,0,0,1-.463.438,4.833,4.833,0,0,1-.607-.04.377.377,0,0,0-.457.435,5.569,5.569,0,0,0,.152.878c.1.437.251.865.3,1.306a1.517,1.517,0,0,1-1.952,1.751,17.949,17.949,0,0,1-2.07-.758c-.481-.187-.492-.19-.627.313q-.3,1.113-.592,2.228a1.069,1.069,0,0,0,.482,1.251,2.945,2.945,0,0,0,.8.383c.461.131.939.2,1.408.3.235.052.346-.032.423-.26a5.477,5.477,0,0,1,.408-.936,2.214,2.214,0,0,1,1.831-1.184c.209-.016.284-.086.327-.293a.959.959,0,0,1,.937-.817,3.348,3.348,0,0,1,.607,0,4.147,4.147,0,0,0,1.92-.248,1.132,1.132,0,0,1,1.471.5c.268.458.451.964.689,1.441.27.543.532,1.094.848,1.611a2.952,2.952,0,0,1,.432,1.454.613.613,0,0,1-.282.572c-.28.194-.554.4-.83.6a.72.72,0,0,0,1.082,0,1.558,1.558,0,0,0,.292-.378,1.657,1.657,0,0,1,.973-.772c-.054-.064-.084-.124-.133-.153a3.255,3.255,0,0,1-1.27-1.756c-.238-.592-.519-1.167-.752-1.761a1.919,1.919,0,0,1-.182-.827.867.867,0,0,1,1.27-.685c.991.546,1.963,1.128,2.928,1.72a1.107,1.107,0,0,1,.489,1.206.972.972,0,0,0,.417,1.046,3.126,3.126,0,0,1,.541.835l.446-.092c-.13-.272-.251-.526-.373-.779a.745.745,0,0,1,.613-1.165,4.39,4.39,0,0,1,.543-.033,1.9,1.9,0,0,0,1.565-1.317c.1-.545.2-1.092.305-1.637a2.5,2.5,0,0,1,.078-.31.847.847,0,0,1,1.085-.673c.366-.626.863-.765,1.593-.349.179-.185.361-.378.548-.566a2.743,2.743,0,0,1,1.376-.835.735.735,0,0,1,.9.475,1.58,1.58,0,0,1-.4,1.768c-.275.291-.611.524-.915.85a2.632,2.632,0,0,0,.349-.074,1.632,1.632,0,0,1,1.278-.011,1.14,1.14,0,0,1,.651,1.27,1.011,1.011,0,0,1-.8,1c-.761.16-1.534.261-2.3.383-.221.035-.445.054-.668.083a1.593,1.593,0,0,0-1.246.786,2.711,2.711,0,0,1-.822.77c-.248.165-.34.358-.228.583a3.224,3.224,0,0,0,.61.887.825.825,0,0,0,.628.065c.584-.121,1.152-.339,1.74-.42a3.986,3.986,0,0,1,1.255.1.706.706,0,0,0,.6-.078c.253-.178.514-.346.782-.5a.481.481,0,1,1,.5.815c-.3.2-.611.393-.919.586a1.2,1.2,0,0,1-1.135.124,1.917,1.917,0,0,0-1.314-.037c-.472.132-.943.275-1.422.38a1.506,1.506,0,0,1-1.666-.608,2.473,2.473,0,0,1-.662-1.59,1.331,1.331,0,0,1,.7-1.113,1.771,1.771,0,0,0,.591-.549,2.258,2.258,0,0,1,1.706-1.116c.949-.145,1.9-.275,2.848-.431a.4.4,0,0,0,.249-.249c.051-.191-.068-.319-.268-.288a4.9,4.9,0,0,0-.648.165.969.969,0,0,1-1.245-.49,1,1,0,0,1,.365-1.394,4.151,4.151,0,0,0,.679-.529,2.545,2.545,0,0,0,.319-.553Z" transform="translate(0 -174.378)" fill="#ea685c"/>
  </g>
</svg>
